<svg width="319" height="479" viewBox="0 0 319 479" fill="none" xmlns="http://www.w3.org/2000/svg">
<rect y="71" width="70" height="340" fill="#555C6E"/>
<path d="M17.825 380.975C20.125 382.008 21.275 383.508 21.275 385.475C21.275 386.392 21.0167 387.225 20.5 387.975C19.9833 388.708 19.25 389.292 18.3 389.725C17.3667 390.158 16.275 390.375 15.025 390.375C13.7917 390.375 12.7167 390.167 11.8 389.75C10.8833 389.317 10.175 388.733 9.675 388C9.175 387.267 8.925 386.442 8.925 385.525C8.925 383.592 9.99167 382.175 12.125 381.275C10.4417 380.358 9.6 379.033 9.6 377.3C9.6 376.417 9.84167 375.642 10.325 374.975C10.825 374.292 11.4917 373.775 12.325 373.425C13.175 373.058 14.1 372.875 15.1 372.875C16.1167 372.875 17.0417 373.042 17.875 373.375C18.7083 373.708 19.3667 374.2 19.85 374.85C20.35 375.5 20.6 376.275 20.6 377.175C20.6 378.758 19.675 380.025 17.825 380.975ZM15.1 375.125C14.35 375.125 13.7583 375.317 13.325 375.7C12.9083 376.083 12.7 376.633 12.7 377.35C12.7 378.017 12.9 378.55 13.3 378.95C13.7 379.333 14.3417 379.683 15.225 380L15.7 380.175C16.35 379.775 16.8083 379.358 17.075 378.925C17.3583 378.475 17.5 377.942 17.5 377.325C17.5 376.642 17.2917 376.108 16.875 375.725C16.4583 375.325 15.8667 375.125 15.1 375.125ZM15.1 388C16.0167 388 16.7333 387.767 17.25 387.3C17.7667 386.833 18.025 386.225 18.025 385.475C18.025 384.708 17.8 384.108 17.35 383.675C16.9 383.225 16.1 382.792 14.95 382.375L14.175 382.1C12.825 382.817 12.15 383.925 12.15 385.425C12.15 386.225 12.4167 386.858 12.95 387.325C13.4833 387.775 14.2 388 15.1 388ZM27.7654 372.875C28.8988 372.875 29.8738 373.083 30.6904 373.5C31.5238 373.917 32.1571 374.483 32.5904 375.2C33.0238 375.917 33.2404 376.717 33.2404 377.6C33.2404 378.55 33.0321 379.467 32.6154 380.35C32.2154 381.217 31.5404 382.183 30.5904 383.25C29.6404 384.317 28.2488 385.725 26.4154 387.475H33.6154L33.2654 390H22.7904V387.65C24.9238 385.483 26.4488 383.883 27.3654 382.85C28.2988 381.8 28.9571 380.908 29.3404 380.175C29.7404 379.425 29.9404 378.65 29.9404 377.85C29.9404 377.083 29.7154 376.483 29.2654 376.05C28.8321 375.617 28.2488 375.4 27.5154 375.4C26.8654 375.4 26.2904 375.542 25.7904 375.825C25.3071 376.092 24.7988 376.542 24.2654 377.175L22.3154 375.625C23.7321 373.792 25.5488 372.875 27.7654 372.875ZM49.9363 372.1L52.0113 373.425L40.4113 390.9L38.3613 389.575L49.9363 372.1ZM39.7863 372.875C40.5863 372.875 41.3113 373.058 41.9613 373.425C42.6113 373.775 43.1197 374.283 43.4863 374.95C43.8697 375.617 44.0613 376.383 44.0613 377.25C44.0613 378.117 43.8697 378.883 43.4863 379.55C43.1197 380.217 42.6113 380.733 41.9613 381.1C41.3113 381.45 40.5863 381.625 39.7863 381.625C38.9863 381.625 38.2613 381.45 37.6113 381.1C36.978 380.733 36.4697 380.217 36.0863 379.55C35.7197 378.883 35.5363 378.117 35.5363 377.25C35.5363 376.383 35.7197 375.617 36.0863 374.95C36.4697 374.283 36.978 373.775 37.6113 373.425C38.2613 373.058 38.9863 372.875 39.7863 372.875ZM39.7863 374.875C39.1363 374.875 38.6697 375.1 38.3863 375.55C38.1197 375.983 37.9863 376.55 37.9863 377.25C37.9863 377.933 38.1197 378.5 38.3863 378.95C38.6697 379.4 39.1363 379.625 39.7863 379.625C40.9863 379.625 41.5863 378.833 41.5863 377.25C41.5863 375.667 40.9863 374.875 39.7863 374.875ZM50.5363 381.625C51.3363 381.625 52.0613 381.808 52.7113 382.175C53.3613 382.525 53.8697 383.033 54.2363 383.7C54.603 384.367 54.7863 385.133 54.7863 386C54.7863 386.867 54.603 387.633 54.2363 388.3C53.8697 388.967 53.3613 389.483 52.7113 389.85C52.0613 390.2 51.3363 390.375 50.5363 390.375C49.7363 390.375 49.0113 390.2 48.3613 389.85C47.7113 389.483 47.1947 388.967 46.8113 388.3C46.4447 387.633 46.2613 386.867 46.2613 386C46.2613 385.133 46.4447 384.367 46.8113 383.7C47.1947 383.033 47.7113 382.525 48.3613 382.175C49.0113 381.808 49.7363 381.625 50.5363 381.625ZM50.5363 383.625C49.8863 383.625 49.4197 383.85 49.1363 384.3C48.8697 384.733 48.7363 385.3 48.7363 386C48.7363 386.683 48.8697 387.25 49.1363 387.7C49.4197 388.15 49.8863 388.375 50.5363 388.375C51.7363 388.375 52.3363 387.583 52.3363 386C52.3363 384.417 51.7363 383.625 50.5363 383.625Z" fill="white"/>
<rect x="82" y="194" width="70" height="218" fill="#555C6E"/>
<path d="M102.2 379.8C103.083 379.8 103.883 380.017 104.6 380.45C105.333 380.867 105.908 381.492 106.325 382.325C106.742 383.142 106.95 384.125 106.95 385.275C106.95 386.442 106.708 387.492 106.225 388.425C105.742 389.342 105.058 390.067 104.175 390.6C103.308 391.117 102.317 391.375 101.2 391.375C99.1333 391.375 97.6 390.65 96.6 389.2C95.6167 387.75 95.125 385.758 95.125 383.225C95.125 381.358 95.4 379.725 95.95 378.325C96.5167 376.908 97.3167 375.817 98.35 375.05C99.4 374.267 100.625 373.875 102.025 373.875C103.408 373.875 104.633 374.233 105.7 374.95L104.5 376.925C103.733 376.475 102.925 376.25 102.075 376.25C101.008 376.25 100.15 376.733 99.5 377.7C98.8667 378.65 98.5083 379.967 98.425 381.65C99.4417 380.417 100.7 379.8 102.2 379.8ZM101.2 389C102.033 389 102.658 388.675 103.075 388.025C103.508 387.358 103.725 386.458 103.725 385.325C103.725 384.175 103.525 383.358 103.125 382.875C102.742 382.375 102.175 382.125 101.425 382.125C100.858 382.125 100.317 382.283 99.8 382.6C99.3 382.9 98.85 383.317 98.45 383.85C98.4833 385.667 98.7083 386.983 99.125 387.8C99.5583 388.6 100.25 389 101.2 389ZM113.301 373.875C114.418 373.875 115.376 374.067 116.176 374.45C116.993 374.833 117.601 375.35 118.001 376C118.418 376.65 118.626 377.367 118.626 378.15C118.626 379.167 118.334 380.017 117.751 380.7C117.168 381.367 116.368 381.833 115.351 382.1C116.468 382.2 117.384 382.6 118.101 383.3C118.818 384 119.176 384.967 119.176 386.2C119.176 387.167 118.926 388.042 118.426 388.825C117.943 389.608 117.243 390.233 116.326 390.7C115.409 391.15 114.326 391.375 113.076 391.375C110.776 391.375 108.959 390.567 107.626 388.95L109.401 387.25C109.968 387.817 110.526 388.233 111.076 388.5C111.626 388.75 112.234 388.875 112.901 388.875C113.801 388.875 114.518 388.625 115.051 388.125C115.601 387.608 115.876 386.917 115.876 386.05C115.876 385.083 115.618 384.392 115.101 383.975C114.601 383.558 113.851 383.35 112.851 383.35H111.526L111.901 381.075H112.801C113.618 381.075 114.268 380.85 114.751 380.4C115.251 379.95 115.501 379.325 115.501 378.525C115.501 377.842 115.276 377.308 114.826 376.925C114.376 376.525 113.776 376.325 113.026 376.325C112.376 376.325 111.784 376.45 111.251 376.7C110.718 376.933 110.184 377.3 109.651 377.8L108.026 376.025C109.543 374.592 111.301 373.875 113.301 373.875ZM135.57 373.1L137.645 374.425L126.045 391.9L123.995 390.575L135.57 373.1ZM125.42 373.875C126.22 373.875 126.945 374.058 127.595 374.425C128.245 374.775 128.753 375.283 129.12 375.95C129.503 376.617 129.695 377.383 129.695 378.25C129.695 379.117 129.503 379.883 129.12 380.55C128.753 381.217 128.245 381.733 127.595 382.1C126.945 382.45 126.22 382.625 125.42 382.625C124.62 382.625 123.895 382.45 123.245 382.1C122.612 381.733 122.103 381.217 121.72 380.55C121.353 379.883 121.17 379.117 121.17 378.25C121.17 377.383 121.353 376.617 121.72 375.95C122.103 375.283 122.612 374.775 123.245 374.425C123.895 374.058 124.62 373.875 125.42 373.875ZM125.42 375.875C124.77 375.875 124.303 376.1 124.02 376.55C123.753 376.983 123.62 377.55 123.62 378.25C123.62 378.933 123.753 379.5 124.02 379.95C124.303 380.4 124.77 380.625 125.42 380.625C126.62 380.625 127.22 379.833 127.22 378.25C127.22 376.667 126.62 375.875 125.42 375.875ZM136.17 382.625C136.97 382.625 137.695 382.808 138.345 383.175C138.995 383.525 139.503 384.033 139.87 384.7C140.237 385.367 140.42 386.133 140.42 387C140.42 387.867 140.237 388.633 139.87 389.3C139.503 389.967 138.995 390.483 138.345 390.85C137.695 391.2 136.97 391.375 136.17 391.375C135.37 391.375 134.645 391.2 133.995 390.85C133.345 390.483 132.828 389.967 132.445 389.3C132.078 388.633 131.895 387.867 131.895 387C131.895 386.133 132.078 385.367 132.445 384.7C132.828 384.033 133.345 383.525 133.995 383.175C134.645 382.808 135.37 382.625 136.17 382.625ZM136.17 384.625C135.52 384.625 135.053 384.85 134.77 385.3C134.503 385.733 134.37 386.3 134.37 387C134.37 387.683 134.503 388.25 134.77 388.7C135.053 389.15 135.52 389.375 136.17 389.375C137.37 389.375 137.97 388.583 137.97 387C137.97 385.417 137.37 384.625 136.17 384.625Z" fill="white"/>
<rect x="165" y="220" width="70" height="191" fill="#555C6E"/>
<path d="M187.975 375.55H181.675V379.725C182.508 379.308 183.358 379.1 184.225 379.1C185.158 379.1 185.992 379.317 186.725 379.75C187.458 380.183 188.025 380.808 188.425 381.625C188.842 382.442 189.05 383.408 189.05 384.525C189.05 385.675 188.792 386.692 188.275 387.575C187.758 388.458 187.025 389.15 186.075 389.65C185.125 390.133 184.025 390.375 182.775 390.375C181.658 390.375 180.667 390.175 179.8 389.775C178.95 389.358 178.175 388.767 177.475 388L179.3 386.3C180.267 387.367 181.4 387.9 182.7 387.9C183.65 387.9 184.392 387.608 184.925 387.025C185.475 386.442 185.75 385.608 185.75 384.525C185.75 382.442 184.85 381.4 183.05 381.4C182.667 381.4 182.308 381.45 181.975 381.55C181.642 381.633 181.275 381.775 180.875 381.975H178.6V373.175H188.35L187.975 375.55ZM200.841 375.55H194.541V379.725C195.375 379.308 196.225 379.1 197.091 379.1C198.025 379.1 198.858 379.317 199.591 379.75C200.325 380.183 200.891 380.808 201.291 381.625C201.708 382.442 201.916 383.408 201.916 384.525C201.916 385.675 201.658 386.692 201.141 387.575C200.625 388.458 199.891 389.15 198.941 389.65C197.991 390.133 196.891 390.375 195.641 390.375C194.525 390.375 193.533 390.175 192.666 389.775C191.816 389.358 191.041 388.767 190.341 388L192.166 386.3C193.133 387.367 194.266 387.9 195.566 387.9C196.516 387.9 197.258 387.608 197.791 387.025C198.341 386.442 198.616 385.608 198.616 384.525C198.616 382.442 197.716 381.4 195.916 381.4C195.533 381.4 195.175 381.45 194.841 381.55C194.508 381.633 194.141 381.775 193.741 381.975H191.466V373.175H201.216L200.841 375.55ZM217.691 372.1L219.766 373.425L208.166 390.9L206.116 389.575L217.691 372.1ZM207.541 372.875C208.341 372.875 209.066 373.058 209.716 373.425C210.366 373.775 210.875 374.283 211.241 374.95C211.625 375.617 211.816 376.383 211.816 377.25C211.816 378.117 211.625 378.883 211.241 379.55C210.875 380.217 210.366 380.733 209.716 381.1C209.066 381.45 208.341 381.625 207.541 381.625C206.741 381.625 206.016 381.45 205.366 381.1C204.733 380.733 204.225 380.217 203.841 379.55C203.475 378.883 203.291 378.117 203.291 377.25C203.291 376.383 203.475 375.617 203.841 374.95C204.225 374.283 204.733 373.775 205.366 373.425C206.016 373.058 206.741 372.875 207.541 372.875ZM207.541 374.875C206.891 374.875 206.425 375.1 206.141 375.55C205.875 375.983 205.741 376.55 205.741 377.25C205.741 377.933 205.875 378.5 206.141 378.95C206.425 379.4 206.891 379.625 207.541 379.625C208.741 379.625 209.341 378.833 209.341 377.25C209.341 375.667 208.741 374.875 207.541 374.875ZM218.291 381.625C219.091 381.625 219.816 381.808 220.466 382.175C221.116 382.525 221.625 383.033 221.991 383.7C222.358 384.367 222.541 385.133 222.541 386C222.541 386.867 222.358 387.633 221.991 388.3C221.625 388.967 221.116 389.483 220.466 389.85C219.816 390.2 219.091 390.375 218.291 390.375C217.491 390.375 216.766 390.2 216.116 389.85C215.466 389.483 214.95 388.967 214.566 388.3C214.2 387.633 214.016 386.867 214.016 386C214.016 385.133 214.2 384.367 214.566 383.7C214.95 383.033 215.466 382.525 216.116 382.175C216.766 381.808 217.491 381.625 218.291 381.625ZM218.291 383.625C217.641 383.625 217.175 383.85 216.891 384.3C216.625 384.733 216.491 385.3 216.491 386C216.491 386.683 216.625 387.25 216.891 387.7C217.175 388.15 217.641 388.375 218.291 388.375C219.491 388.375 220.091 387.583 220.091 386C220.091 384.417 219.491 383.625 218.291 383.625Z" fill="white"/>
<rect x="249" y="221" width="70" height="191" fill="#555C6E"/>
<path d="M278.975 376.55H272.675V380.725C273.508 380.308 274.358 380.1 275.225 380.1C276.158 380.1 276.992 380.317 277.725 380.75C278.458 381.183 279.025 381.808 279.425 382.625C279.842 383.442 280.05 384.408 280.05 385.525C280.05 386.675 279.792 387.692 279.275 388.575C278.758 389.458 278.025 390.15 277.075 390.65C276.125 391.133 275.025 391.375 273.775 391.375C272.658 391.375 271.667 391.175 270.8 390.775C269.95 390.358 269.175 389.767 268.475 389L270.3 387.3C271.267 388.367 272.4 388.9 273.7 388.9C274.65 388.9 275.392 388.608 275.925 388.025C276.475 387.442 276.75 386.608 276.75 385.525C276.75 383.442 275.85 382.4 274.05 382.4C273.667 382.4 273.308 382.45 272.975 382.55C272.642 382.633 272.275 382.775 271.875 382.975H269.6V374.175H279.35L278.975 376.55ZM291.841 376.55H285.541V380.725C286.375 380.308 287.225 380.1 288.091 380.1C289.025 380.1 289.858 380.317 290.591 380.75C291.325 381.183 291.891 381.808 292.291 382.625C292.708 383.442 292.916 384.408 292.916 385.525C292.916 386.675 292.658 387.692 292.141 388.575C291.625 389.458 290.891 390.15 289.941 390.65C288.991 391.133 287.891 391.375 286.641 391.375C285.525 391.375 284.533 391.175 283.666 390.775C282.816 390.358 282.041 389.767 281.341 389L283.166 387.3C284.133 388.367 285.266 388.9 286.566 388.9C287.516 388.9 288.258 388.608 288.791 388.025C289.341 387.442 289.616 386.608 289.616 385.525C289.616 383.442 288.716 382.4 286.916 382.4C286.533 382.4 286.175 382.45 285.841 382.55C285.508 382.633 285.141 382.775 284.741 382.975H282.466V374.175H292.216L291.841 376.55ZM308.691 373.1L310.766 374.425L299.166 391.9L297.116 390.575L308.691 373.1ZM298.541 373.875C299.341 373.875 300.066 374.058 300.716 374.425C301.366 374.775 301.875 375.283 302.241 375.95C302.625 376.617 302.816 377.383 302.816 378.25C302.816 379.117 302.625 379.883 302.241 380.55C301.875 381.217 301.366 381.733 300.716 382.1C300.066 382.45 299.341 382.625 298.541 382.625C297.741 382.625 297.016 382.45 296.366 382.1C295.733 381.733 295.225 381.217 294.841 380.55C294.475 379.883 294.291 379.117 294.291 378.25C294.291 377.383 294.475 376.617 294.841 375.95C295.225 375.283 295.733 374.775 296.366 374.425C297.016 374.058 297.741 373.875 298.541 373.875ZM298.541 375.875C297.891 375.875 297.425 376.1 297.141 376.55C296.875 376.983 296.741 377.55 296.741 378.25C296.741 378.933 296.875 379.5 297.141 379.95C297.425 380.4 297.891 380.625 298.541 380.625C299.741 380.625 300.341 379.833 300.341 378.25C300.341 376.667 299.741 375.875 298.541 375.875ZM309.291 382.625C310.091 382.625 310.816 382.808 311.466 383.175C312.116 383.525 312.625 384.033 312.991 384.7C313.358 385.367 313.541 386.133 313.541 387C313.541 387.867 313.358 388.633 312.991 389.3C312.625 389.967 312.116 390.483 311.466 390.85C310.816 391.2 310.091 391.375 309.291 391.375C308.491 391.375 307.766 391.2 307.116 390.85C306.466 390.483 305.95 389.967 305.566 389.3C305.2 388.633 305.016 387.867 305.016 387C305.016 386.133 305.2 385.367 305.566 384.7C305.95 384.033 306.466 383.525 307.116 383.175C307.766 382.808 308.491 382.625 309.291 382.625ZM309.291 384.625C308.641 384.625 308.175 384.85 307.891 385.3C307.625 385.733 307.491 386.3 307.491 387C307.491 387.683 307.625 388.25 307.891 388.7C308.175 389.15 308.641 389.375 309.291 389.375C310.491 389.375 311.091 388.583 311.091 387C311.091 385.417 310.491 384.625 309.291 384.625Z" fill="white"/>
<rect x="9" y="2" width="47.0222" height="54.4889" stroke="#2BB09F" stroke-width="4"/>
<path d="M19.4444 13.0669H46.2M19.4444 19.2891H46.2M19.4444 26.1336H46.2M19.4444 32.3558H46.2M19.4444 38.578L46.2 37.9558M19.4444 44.8002H46.2" stroke="#2BB09F" stroke-width="3"/>
<circle cx="48" cy="48.4668" r="15" fill="#2BB09F"/>
<path d="M48 42.0383V54.8955M41.5714 48.4669H54.4286" stroke="white" stroke-width="2"/>
<path fill-rule="evenodd" clip-rule="evenodd" d="M93 135C91.3431 135 90 136.343 90 138V179C90 180.657 91.3431 182 93 182H142C143.657 182 145 180.657 145 179V138C145 136.343 143.657 135 142 135H93ZM140 146H95V176H140V146Z" fill="#2BB09F"/>
<rect x="101" y="128" width="9" height="12" rx="3" fill="#2BB09F" stroke="white" stroke-width="2"/>
<rect x="124" y="128" width="9" height="12" rx="3" fill="#2BB09F" stroke="white" stroke-width="2"/>
<rect x="102" y="152" width="5" height="5" rx="1" fill="#2BB09F"/>
<rect x="110" y="152" width="5" height="5" rx="1" fill="#2BB09F"/>
<rect x="118" y="152" width="5" height="5" rx="1" fill="#2BB09F"/>
<rect x="126" y="152" width="5" height="5" rx="1" fill="#2BB09F"/>
<rect x="126" y="159" width="5" height="5" rx="1" fill="#2BB09F"/>
<rect x="126" y="166" width="5" height="5" rx="1" fill="#2BB09F"/>
<rect x="118" y="159" width="5" height="5" rx="1" fill="#2BB09F"/>
<rect x="110" y="159" width="5" height="5" rx="1" fill="#2BB09F"/>
<rect x="102" y="159" width="5" height="5" rx="1" fill="#2BB09F"/>
<rect x="102" y="166" width="5" height="5" rx="1" fill="#2BB09F"/>
<rect x="110" y="166" width="5" height="5" rx="1" fill="#2BB09F"/>
<rect x="118" y="166" width="5" height="5" rx="1" fill="#2BB09F"/>
<rect x="258" y="153" width="47.0222" height="54.4889" stroke="#2BB09F" stroke-width="4"/>
<path d="M268.444 164.067H295.2M268.444 170.289H295.2M268.444 177.134H295.2M268.444 183.356H295.2M268.444 188.956H295.2M268.444 195.8H295.2" stroke="#2BB09F" stroke-width="3"/>
<circle cx="298" cy="198" r="13.5" fill="#2BB09F" stroke="#2BB09F" stroke-width="3"/>
<path d="M298 207.643V190.5M298 190.5L304.429 196.928M298 190.5L291.571 196.928" stroke="white" stroke-width="3"/>
<circle cx="184.336" cy="187.813" r="7.23134" fill="#2BB09F"/>
<path d="M172 207.806C172 201.228 177.332 195.895 183.91 195.895H184.761C191.339 195.895 196.672 201.228 196.672 207.806H172Z" fill="#2BB09F"/>
<circle cx="216.664" cy="187.813" r="7.23134" fill="#2BB09F"/>
<path d="M204.328 207.806C204.328 201.228 209.661 195.895 216.239 195.895H217.09C223.668 195.895 229 201.228 229 207.806H204.328Z" fill="#2BB09F"/>
<mask id="path-36-inside-1" fill="white">
<path fill-rule="evenodd" clip-rule="evenodd" d="M198.373 174.627C201.208 174.627 203.683 173.086 205.006 170.797C206.002 171.599 207.24 172.075 208.582 172.075C210.99 172.075 213.064 170.543 214.003 168.34C214.71 168.556 215.461 168.672 216.239 168.672C220.467 168.672 223.896 165.244 223.896 161.015C223.896 157.035 220.859 153.765 216.977 153.393C216.438 150.463 214.027 148.254 211.134 148.254C210.675 148.254 210.227 148.309 209.798 148.415C208.709 145.836 205.909 144 202.627 144C199.854 144 197.426 145.31 196.082 147.271C195.108 146.811 194.008 146.552 192.843 146.552C189.786 146.552 187.172 148.338 186.114 150.861C185.81 150.825 185.501 150.806 185.187 150.806C181.193 150.806 177.955 153.853 177.955 157.612C177.955 160.973 180.543 163.765 183.946 164.318C184.273 167.724 186.799 170.373 189.866 170.373C190.397 170.373 190.913 170.294 191.403 170.144C192.609 172.789 195.277 174.627 198.373 174.627Z"/>
</mask>
<path d="M205.006 170.797L207.516 167.682L203.88 164.753L201.544 168.795L205.006 170.797ZM214.003 168.34L215.169 164.514L211.731 163.466L210.323 166.773L214.003 168.34ZM216.977 153.393L213.043 154.117L213.59 157.088L216.596 157.375L216.977 153.393ZM209.798 148.415L206.113 149.971L207.439 153.113L210.752 152.3L209.798 148.415ZM196.082 147.271L194.374 150.888L197.456 152.344L199.382 149.532L196.082 147.271ZM186.114 150.861L185.635 154.833L188.635 155.194L189.803 152.408L186.114 150.861ZM183.946 164.318L187.928 163.936L187.633 160.865L184.589 160.37L183.946 164.318ZM191.403 170.144L195.043 168.484L193.589 165.297L190.238 166.318L191.403 170.144ZM201.544 168.795C200.905 169.899 199.722 170.627 198.373 170.627V178.627C202.694 178.627 206.46 176.274 208.469 172.799L201.544 168.795ZM208.582 168.075C208.21 168.075 207.846 167.948 207.516 167.682L202.497 173.912C204.158 175.25 206.271 176.075 208.582 176.075V168.075ZM210.323 166.773C209.94 167.671 209.209 168.075 208.582 168.075V176.075C212.771 176.075 216.189 173.415 217.683 169.907L210.323 166.773ZM216.239 164.672C215.861 164.672 215.503 164.616 215.169 164.514L212.836 172.166C213.918 172.496 215.061 172.672 216.239 172.672V164.672ZM219.896 161.015C219.896 163.034 218.258 164.672 216.239 164.672V172.672C222.677 172.672 227.896 167.453 227.896 161.015H219.896ZM216.596 157.375C218.446 157.552 219.896 159.117 219.896 161.015H227.896C227.896 154.954 223.273 149.977 217.358 149.412L216.596 157.375ZM211.134 152.254C211.872 152.254 212.811 152.855 213.043 154.117L220.911 152.67C220.065 148.072 216.182 144.254 211.134 144.254V152.254ZM210.752 152.3C210.873 152.27 211 152.254 211.134 152.254V144.254C210.35 144.254 209.582 144.349 208.843 144.531L210.752 152.3ZM202.627 148C204.469 148 205.712 149.021 206.113 149.971L213.483 146.859C211.706 142.65 207.349 140 202.627 140V148ZM199.382 149.532C199.936 148.723 201.094 148 202.627 148V140C198.614 140 194.915 141.897 192.782 145.011L199.382 149.532ZM192.843 150.552C193.411 150.552 193.928 150.678 194.374 150.888L197.791 143.655C196.288 142.945 194.605 142.552 192.843 142.552V150.552ZM189.803 152.408C190.216 151.423 191.34 150.552 192.843 150.552V142.552C188.232 142.552 184.128 145.253 182.425 149.315L189.803 152.408ZM185.187 154.806C185.341 154.806 185.49 154.815 185.635 154.833L186.593 146.89C186.13 146.834 185.661 146.806 185.187 146.806V154.806ZM181.955 157.612C181.955 156.287 183.17 154.806 185.187 154.806V146.806C179.216 146.806 173.955 151.419 173.955 157.612H181.955ZM184.589 160.37C182.912 160.097 181.955 158.806 181.955 157.612H173.955C173.955 163.139 178.175 167.432 183.304 168.266L184.589 160.37ZM189.866 166.373C189.298 166.373 188.103 165.757 187.928 163.936L179.965 164.701C180.444 169.69 184.3 174.373 189.866 174.373V166.373ZM190.238 166.318C190.118 166.354 189.995 166.373 189.866 166.373V174.373C190.8 174.373 191.708 174.233 192.569 173.971L190.238 166.318ZM198.373 170.627C196.9 170.627 195.623 169.756 195.043 168.484L187.764 171.804C189.596 175.821 193.653 178.627 198.373 178.627V170.627Z" fill="#2BB09F" mask="url(#path-36-inside-1)"/>
<circle cx="194.119" cy="177.179" r="2.55224" fill="#2BB09F"/>
<circle cx="206.881" cy="177.179" r="2.55224" fill="#2BB09F"/>
<circle cx="209.858" cy="181.008" r="1.27612" fill="#2BB09F"/>
<circle cx="191.142" cy="181.008" r="1.27612" fill="#2BB09F"/>
<path d="M18.2577 437.256C17.3404 437.256 16.5457 437.032 15.8737 436.584C15.2124 436.125 14.7004 435.475 14.3377 434.632C13.9857 433.779 13.8097 432.76 13.8097 431.576C13.8097 430.381 13.9804 429.357 14.3217 428.504C14.6737 427.64 15.1697 426.984 15.8097 426.536C16.4604 426.077 17.2284 425.848 18.1137 425.848C19.0204 425.848 19.7937 426.051 20.4337 426.456C21.0844 426.851 21.591 427.411 21.9537 428.136L20.9937 428.696C20.6524 428.067 20.2524 427.619 19.7937 427.352C19.335 427.075 18.775 426.936 18.1137 426.936C17.1644 426.936 16.4177 427.347 15.8737 428.168C15.3404 428.979 15.0737 430.109 15.0737 431.56C15.0737 432.509 15.1964 433.331 15.4417 434.024C15.687 434.717 16.039 435.251 16.4977 435.624C16.9564 435.987 17.4897 436.168 18.0977 436.168C18.855 436.168 19.4417 436.003 19.8577 435.672C20.2844 435.331 20.679 434.803 21.0417 434.088L22.0497 434.696C21.6657 435.528 21.1537 436.163 20.5137 436.6C19.8844 437.037 19.1324 437.256 18.2577 437.256ZM27.3052 429.256C27.5612 429.256 27.8065 429.293 28.0412 429.368V430.36C27.8172 430.253 27.5719 430.2 27.3052 430.2C26.8465 430.2 26.4199 430.328 26.0252 430.584C25.6305 430.84 25.3105 431.213 25.0652 431.704C24.8305 432.184 24.7132 432.755 24.7132 433.416V437H23.6252V429.512H24.7132V431.016C25.0012 430.461 25.3639 430.029 25.8012 429.72C26.2492 429.411 26.7505 429.256 27.3052 429.256ZM32.1228 429.256C32.7948 429.256 33.4028 429.421 33.9468 429.752C34.4908 430.083 34.9175 430.536 35.2268 431.112C35.5361 431.677 35.6908 432.312 35.6908 433.016C35.6908 433.219 35.6855 433.373 35.6748 433.48H29.5148C29.5575 434.248 29.8081 434.904 30.2668 435.448C30.7255 435.992 31.3495 436.264 32.1388 436.264C32.7788 436.264 33.3068 436.147 33.7228 435.912C34.1495 435.667 34.4908 435.331 34.7468 434.904L35.6108 435.48C35.2588 436.035 34.7948 436.472 34.2188 436.792C33.6428 437.101 32.9601 437.256 32.1708 437.256C31.4455 437.256 30.8001 437.085 30.2348 436.744C29.6695 436.403 29.2268 435.928 28.9068 435.32C28.5868 434.712 28.4268 434.024 28.4268 433.256C28.4268 432.488 28.5815 431.8 28.8908 431.192C29.2108 430.584 29.6481 430.109 30.2028 429.768C30.7681 429.427 31.4081 429.256 32.1228 429.256ZM34.6028 432.584C34.4961 431.805 34.2348 431.224 33.8188 430.84C33.4028 430.445 32.8375 430.248 32.1228 430.248C31.4295 430.248 30.8588 430.472 30.4108 430.92C29.9735 431.357 29.6961 431.912 29.5788 432.584H34.6028ZM44.2571 429.512V437H43.1691V435.896C42.8597 436.323 42.4811 436.659 42.0331 436.904C41.5851 437.139 41.0944 437.256 40.5611 437.256C39.8464 437.256 39.2064 437.085 38.6411 436.744C38.0757 436.403 37.6331 435.928 37.3131 435.32C36.9931 434.712 36.8331 434.019 36.8331 433.24C36.8331 432.472 36.9877 431.789 37.2971 431.192C37.6171 430.584 38.0544 430.109 38.6091 429.768C39.1744 429.427 39.8144 429.256 40.5291 429.256C41.0731 429.256 41.5691 429.379 42.0171 429.624C42.4757 429.859 42.8597 430.195 43.1691 430.632V429.512H44.2571ZM40.5291 436.264C41.0411 436.264 41.4944 436.136 41.8891 435.88C42.2944 435.624 42.6091 435.267 42.8331 434.808C43.0571 434.349 43.1691 433.832 43.1691 433.256C43.1691 432.68 43.0571 432.163 42.8331 431.704C42.6091 431.245 42.2944 430.888 41.8891 430.632C41.4944 430.376 41.0411 430.248 40.5291 430.248C40.0277 430.248 39.5797 430.376 39.1851 430.632C38.7904 430.888 38.4811 431.245 38.2571 431.704C38.0331 432.152 37.9211 432.664 37.9211 433.24C37.9211 433.827 38.0331 434.349 38.2571 434.808C38.4811 435.267 38.7904 435.624 39.1851 435.88C39.5797 436.136 40.0277 436.264 40.5291 436.264ZM46.6658 437V430.504H45.3858V429.512H46.6658V427.032H47.7538V429.512H49.4818V430.504H47.7538V437H46.6658ZM53.9041 429.256C54.5761 429.256 55.1841 429.421 55.7281 429.752C56.2721 430.083 56.6987 430.536 57.0081 431.112C57.3174 431.677 57.4721 432.312 57.4721 433.016C57.4721 433.219 57.4667 433.373 57.4561 433.48H51.2961C51.3387 434.248 51.5894 434.904 52.0481 435.448C52.5067 435.992 53.1307 436.264 53.9201 436.264C54.5601 436.264 55.0881 436.147 55.5041 435.912C55.9307 435.667 56.2721 435.331 56.5281 434.904L57.3921 435.48C57.0401 436.035 56.5761 436.472 56.0001 436.792C55.4241 437.101 54.7414 437.256 53.9521 437.256C53.2267 437.256 52.5814 437.085 52.0161 436.744C51.4507 436.403 51.0081 435.928 50.6881 435.32C50.3681 434.712 50.2081 434.024 50.2081 433.256C50.2081 432.488 50.3627 431.8 50.6721 431.192C50.9921 430.584 51.4294 430.109 51.9841 429.768C52.5494 429.427 53.1894 429.256 53.9041 429.256ZM56.3841 432.584C56.2774 431.805 56.0161 431.224 55.6001 430.84C55.1841 430.445 54.6187 430.248 53.9041 430.248C53.2107 430.248 52.6401 430.472 52.1921 430.92C51.7547 431.357 51.4774 431.912 51.3601 432.584H56.3841ZM14.5311 458.256C13.6138 458.256 12.8191 458.032 12.1471 457.584C11.4858 457.125 10.9738 456.475 10.6111 455.632C10.2591 454.779 10.0831 453.76 10.0831 452.576C10.0831 451.381 10.2538 450.357 10.5951 449.504C10.9471 448.64 11.4431 447.984 12.0831 447.536C12.7338 447.077 13.5018 446.848 14.3871 446.848C15.2938 446.848 16.0671 447.051 16.7071 447.456C17.3578 447.851 17.8645 448.411 18.2271 449.136L17.2671 449.696C16.9258 449.067 16.5258 448.619 16.0671 448.352C15.6085 448.075 15.0485 447.936 14.3871 447.936C13.4378 447.936 12.6911 448.347 12.1471 449.168C11.6138 449.979 11.3471 451.109 11.3471 452.56C11.3471 453.509 11.4698 454.331 11.7151 455.024C11.9605 455.717 12.3125 456.251 12.7711 456.624C13.2298 456.987 13.7631 457.168 14.3711 457.168C15.1285 457.168 15.7151 457.003 16.1311 456.672C16.5578 456.331 16.9525 455.803 17.3151 455.088L18.3231 455.696C17.9391 456.528 17.4271 457.163 16.7871 457.6C16.1578 458.037 15.4058 458.256 14.5311 458.256ZM23.1626 458.256C22.448 458.256 21.808 458.085 21.2426 457.744C20.6773 457.403 20.2346 456.928 19.9146 456.32C19.5946 455.701 19.4346 455.008 19.4346 454.24C19.4346 453.472 19.5893 452.789 19.8986 452.192C20.2186 451.584 20.656 451.109 21.2106 450.768C21.776 450.427 22.416 450.256 23.1306 450.256C23.8453 450.256 24.4853 450.427 25.0506 450.768C25.616 451.109 26.0586 451.584 26.3786 452.192C26.6986 452.8 26.8586 453.488 26.8586 454.256C26.8586 455.024 26.6986 455.712 26.3786 456.32C26.0693 456.928 25.632 457.403 25.0666 457.744C24.512 458.085 23.8773 458.256 23.1626 458.256ZM23.1306 457.264C23.6426 457.264 24.096 457.136 24.4906 456.88C24.896 456.624 25.2106 456.267 25.4346 455.808C25.6586 455.349 25.7706 454.832 25.7706 454.256C25.7706 453.68 25.6586 453.163 25.4346 452.704C25.2106 452.245 24.896 451.888 24.4906 451.632C24.096 451.376 23.6426 451.248 23.1306 451.248C22.6293 451.248 22.1813 451.376 21.7866 451.632C21.392 451.888 21.0826 452.245 20.8586 452.704C20.6346 453.152 20.5226 453.664 20.5226 454.24C20.5226 454.827 20.6346 455.349 20.8586 455.808C21.0826 456.267 21.392 456.624 21.7866 456.88C22.1813 457.136 22.6293 457.264 23.1306 457.264ZM31.9666 450.256C32.4893 450.256 32.9693 450.363 33.4066 450.576C33.8546 450.789 34.2066 451.104 34.4626 451.52C34.7293 451.936 34.8626 452.427 34.8626 452.992V458H33.7746V453.472C33.7746 451.989 33.1133 451.248 31.7906 451.248C31.0226 451.248 30.4466 451.52 30.0626 452.064C29.6786 452.608 29.4866 453.339 29.4866 454.256V458H28.3986V450.512H29.4866V451.76C29.7426 451.28 30.0786 450.912 30.4946 450.656C30.9213 450.389 31.412 450.256 31.9666 450.256ZM37.3924 458V451.504H36.1124V450.512H37.3924V448.032H38.4804V450.512H40.2084V451.504H38.4804V458H37.3924ZM44.6306 450.256C45.3026 450.256 45.9106 450.421 46.4546 450.752C46.9986 451.083 47.4253 451.536 47.7346 452.112C48.044 452.677 48.1986 453.312 48.1986 454.016C48.1986 454.219 48.1933 454.373 48.1826 454.48H42.0226C42.0653 455.248 42.316 455.904 42.7746 456.448C43.2333 456.992 43.8573 457.264 44.6466 457.264C45.2866 457.264 45.8146 457.147 46.2306 456.912C46.6573 456.667 46.9986 456.331 47.2546 455.904L48.1186 456.48C47.7666 457.035 47.3026 457.472 46.7266 457.792C46.1506 458.101 45.468 458.256 44.6786 458.256C43.9533 458.256 43.308 458.085 42.7426 457.744C42.1773 457.403 41.7346 456.928 41.4146 456.32C41.0946 455.712 40.9346 455.024 40.9346 454.256C40.9346 453.488 41.0893 452.8 41.3986 452.192C41.7186 451.584 42.156 451.109 42.7106 450.768C43.276 450.427 43.916 450.256 44.6306 450.256ZM47.1106 453.584C47.004 452.805 46.7426 452.224 46.3266 451.84C45.9106 451.445 45.3453 451.248 44.6306 451.248C43.9373 451.248 43.3666 451.472 42.9186 451.92C42.4813 452.357 42.204 452.912 42.0866 453.584H47.1106ZM53.3729 450.256C53.8955 450.256 54.3755 450.363 54.8129 450.576C55.2609 450.789 55.6129 451.104 55.8689 451.52C56.1355 451.936 56.2689 452.427 56.2689 452.992V458H55.1809V453.472C55.1809 451.989 54.5195 451.248 53.1969 451.248C52.4289 451.248 51.8529 451.52 51.4689 452.064C51.0849 452.608 50.8929 453.339 50.8929 454.256V458H49.8049V450.512H50.8929V451.76C51.1489 451.28 51.4849 450.912 51.9009 450.656C52.3275 450.389 52.8182 450.256 53.3729 450.256ZM58.7986 458V451.504H57.5186V450.512H58.7986V448.032H59.8866V450.512H61.6146V451.504H59.8866V458H58.7986Z" fill="#3B3B3B"/>
<path d="M83.6308 437.256C82.8308 437.256 82.0521 437.059 81.2948 436.664C80.5374 436.259 79.9081 435.715 79.4068 435.032L80.3828 434.168C80.7668 434.776 81.2574 435.261 81.8548 435.624C82.4521 435.976 83.0974 436.152 83.7908 436.152C84.5481 436.152 85.1241 435.987 85.5188 435.656C85.9134 435.315 86.1108 434.856 86.1108 434.28C86.1108 433.651 85.8974 433.171 85.4708 432.84C85.0548 432.499 84.3881 432.2 83.4708 431.944C81.1668 431.379 80.0148 430.333 80.0148 428.808C80.0148 427.859 80.3241 427.128 80.9428 426.616C81.5614 426.104 82.4201 425.848 83.5188 425.848C84.3188 425.848 85.0334 425.997 85.6628 426.296C86.3028 426.595 86.8734 427.053 87.3748 427.672L86.4308 428.472C86.0468 427.949 85.6254 427.565 85.1668 427.32C84.7081 427.064 84.1588 426.936 83.5188 426.936C82.8468 426.936 82.2974 427.096 81.8708 427.416C81.4441 427.725 81.2308 428.152 81.2308 428.696C81.2308 429.251 81.4281 429.693 81.8228 430.024C82.2174 430.344 82.8841 430.616 83.8228 430.84C84.9321 431.139 85.7908 431.549 86.3988 432.072C87.0174 432.595 87.3268 433.331 87.3268 434.28C87.3268 434.867 87.1774 435.384 86.8788 435.832C86.5801 436.28 86.1481 436.632 85.5828 436.888C85.0281 437.133 84.3774 437.256 83.6308 437.256ZM92.3029 437.256C91.5775 437.256 90.9322 437.085 90.3669 436.744C89.8015 436.403 89.3589 435.928 89.0389 435.32C88.7189 434.712 88.5589 434.024 88.5589 433.256C88.5589 432.488 88.7135 431.8 89.0229 431.192C89.3429 430.584 89.7855 430.109 90.3509 429.768C90.9162 429.427 91.5562 429.256 92.2709 429.256C92.8789 429.256 93.4069 429.389 93.8549 429.656C94.3135 429.912 94.7295 430.28 95.1029 430.76L94.3029 431.384C93.7802 430.627 93.1029 430.248 92.2709 430.248C91.7695 430.248 91.3162 430.376 90.9109 430.632C90.5162 430.888 90.2069 431.245 89.9829 431.704C89.7589 432.163 89.6469 432.68 89.6469 433.256C89.6469 433.832 89.7589 434.349 89.9829 434.808C90.2069 435.267 90.5162 435.624 90.9109 435.88C91.3162 436.136 91.7695 436.264 92.2709 436.264C92.7829 436.264 93.2042 436.179 93.5349 436.008C93.8655 435.827 94.1642 435.565 94.4309 435.224L95.2789 435.816C94.9269 436.253 94.4895 436.605 93.9669 436.872C93.4549 437.128 92.9002 437.256 92.3029 437.256ZM100.248 429.256C100.771 429.256 101.251 429.363 101.688 429.576C102.136 429.789 102.488 430.104 102.744 430.52C103.011 430.936 103.144 431.427 103.144 431.992V437H102.056V432.472C102.056 430.989 101.395 430.248 100.072 430.248C99.3039 430.248 98.7279 430.52 98.3439 431.064C97.9599 431.608 97.7679 432.339 97.7679 433.256V437H96.6799V425.384H97.7679V430.76C98.0239 430.28 98.3599 429.912 98.7759 429.656C99.2025 429.389 99.6932 429.256 100.248 429.256ZM108.459 429.256C109.131 429.256 109.739 429.421 110.283 429.752C110.827 430.083 111.253 430.536 111.563 431.112C111.872 431.677 112.027 432.312 112.027 433.016C112.027 433.219 112.021 433.373 112.011 433.48H105.851C105.893 434.248 106.144 434.904 106.603 435.448C107.061 435.992 107.685 436.264 108.475 436.264C109.115 436.264 109.643 436.147 110.059 435.912C110.485 435.667 110.827 435.331 111.083 434.904L111.947 435.48C111.595 436.035 111.131 436.472 110.555 436.792C109.979 437.101 109.296 437.256 108.507 437.256C107.781 437.256 107.136 437.085 106.571 436.744C106.005 436.403 105.563 435.928 105.243 435.32C104.923 434.712 104.763 434.024 104.763 433.256C104.763 432.488 104.917 431.8 105.227 431.192C105.547 430.584 105.984 430.109 106.539 429.768C107.104 429.427 107.744 429.256 108.459 429.256ZM110.939 432.584C110.832 431.805 110.571 431.224 110.155 430.84C109.739 430.445 109.173 430.248 108.459 430.248C107.765 430.248 107.195 430.472 106.747 430.92C106.309 431.357 106.032 431.912 105.915 432.584H110.939ZM120.593 425.384V437H119.505V435.896C119.196 436.323 118.817 436.659 118.369 436.904C117.921 437.139 117.43 437.256 116.897 437.256C116.182 437.256 115.542 437.085 114.977 436.744C114.412 436.403 113.969 435.928 113.649 435.32C113.329 434.712 113.169 434.019 113.169 433.24C113.169 432.472 113.324 431.789 113.633 431.192C113.953 430.584 114.39 430.109 114.945 429.768C115.51 429.427 116.15 429.256 116.865 429.256C117.409 429.256 117.905 429.379 118.353 429.624C118.812 429.859 119.196 430.195 119.505 430.632V425.384H120.593ZM116.865 436.264C117.377 436.264 117.83 436.136 118.225 435.88C118.63 435.624 118.945 435.267 119.169 434.808C119.393 434.349 119.505 433.832 119.505 433.256C119.505 432.68 119.393 432.163 119.169 431.704C118.945 431.245 118.63 430.888 118.225 430.632C117.83 430.376 117.377 430.248 116.865 430.248C116.364 430.248 115.916 430.376 115.521 430.632C115.126 430.888 114.817 431.245 114.593 431.704C114.369 432.152 114.257 432.664 114.257 433.24C114.257 433.827 114.369 434.349 114.593 434.808C114.817 435.267 115.126 435.624 115.521 435.88C115.916 436.136 116.364 436.264 116.865 436.264ZM129.178 429.512V437H128.09V435.752C127.834 436.232 127.492 436.605 127.066 436.872C126.65 437.128 126.164 437.256 125.61 437.256C125.087 437.256 124.602 437.149 124.154 436.936C123.716 436.723 123.364 436.408 123.098 435.992C122.842 435.576 122.714 435.085 122.714 434.52V429.512H123.802V434.04C123.802 435.523 124.463 436.264 125.786 436.264C126.554 436.264 127.13 435.992 127.514 435.448C127.898 434.904 128.09 434.173 128.09 433.256V429.512H129.178ZM131.276 437V425.384H132.364V437H131.276ZM135.038 437V429.512H136.126V437H135.038ZM135.582 428.056C135.336 428.056 135.128 427.971 134.958 427.8C134.798 427.629 134.718 427.421 134.718 427.176C134.718 426.941 134.798 426.744 134.958 426.584C135.128 426.413 135.336 426.328 135.582 426.328C135.816 426.328 136.019 426.413 136.19 426.584C136.36 426.744 136.446 426.947 136.446 427.192C136.446 427.427 136.36 427.629 136.19 427.8C136.019 427.971 135.816 428.056 135.582 428.056ZM142.295 429.256C142.817 429.256 143.297 429.363 143.735 429.576C144.183 429.789 144.535 430.104 144.791 430.52C145.057 430.936 145.191 431.427 145.191 431.992V437H144.103V432.472C144.103 430.989 143.441 430.248 142.119 430.248C141.351 430.248 140.775 430.52 140.391 431.064C140.007 431.608 139.815 432.339 139.815 433.256V437H138.727V429.512H139.815V430.76C140.071 430.28 140.407 429.912 140.823 429.656C141.249 429.389 141.74 429.256 142.295 429.256ZM154.281 429.512V436.712C154.281 437.384 154.142 437.981 153.865 438.504C153.587 439.037 153.198 439.453 152.697 439.752C152.195 440.051 151.625 440.2 150.985 440.2H147.881V439.208H150.985C151.635 439.208 152.163 438.973 152.569 438.504C152.985 438.035 153.193 437.437 153.193 436.712V435.896C152.883 436.323 152.505 436.659 152.057 436.904C151.609 437.139 151.118 437.256 150.585 437.256C149.87 437.256 149.23 437.085 148.664 436.744C148.099 436.403 147.657 435.928 147.337 435.32C147.017 434.712 146.857 434.019 146.857 433.24C146.857 432.472 147.011 431.789 147.321 431.192C147.641 430.584 148.078 430.109 148.633 429.768C149.198 429.427 149.838 429.256 150.553 429.256C151.097 429.256 151.593 429.379 152.041 429.624C152.499 429.859 152.883 430.195 153.193 430.632V429.512H154.281ZM150.553 436.264C151.065 436.264 151.518 436.136 151.913 435.88C152.318 435.624 152.633 435.267 152.857 434.808C153.081 434.349 153.193 433.832 153.193 433.256C153.193 432.68 153.081 432.163 152.857 431.704C152.633 431.245 152.318 430.888 151.913 430.632C151.518 430.376 151.065 430.248 150.553 430.248C150.051 430.248 149.603 430.376 149.209 430.632C148.814 430.888 148.505 431.245 148.281 431.704C148.057 432.152 147.945 432.664 147.945 433.24C147.945 433.827 148.057 434.349 148.281 434.808C148.505 435.267 148.814 435.624 149.209 435.88C149.603 436.136 150.051 436.264 150.553 436.264Z" fill="#3B3B3B"/>
<path d="M264.703 437.256C263.359 437.256 262.351 436.893 261.679 436.168C261.007 435.432 260.671 434.36 260.671 432.952V426.088H261.871V432.952C261.871 435.096 262.815 436.168 264.703 436.168C265.556 436.168 266.228 435.891 266.719 435.336C267.22 434.781 267.471 433.987 267.471 432.952V426.088H268.671V432.952C268.671 434.339 268.319 435.405 267.615 436.152C266.921 436.888 265.951 437.256 264.703 437.256ZM274.673 429.256C275.388 429.256 276.028 429.427 276.593 429.768C277.158 430.109 277.601 430.584 277.921 431.192C278.241 431.8 278.401 432.493 278.401 433.272C278.401 434.04 278.241 434.728 277.921 435.336C277.612 435.933 277.174 436.403 276.609 436.744C276.054 437.085 275.42 437.256 274.705 437.256C274.161 437.256 273.66 437.139 273.201 436.904C272.753 436.659 272.374 436.317 272.065 435.88V440.2H270.977V429.512H272.065V430.616C272.374 430.189 272.753 429.859 273.201 429.624C273.649 429.379 274.14 429.256 274.673 429.256ZM274.705 436.264C275.206 436.264 275.654 436.136 276.049 435.88C276.444 435.624 276.753 435.272 276.977 434.824C277.201 434.365 277.313 433.848 277.313 433.272C277.313 432.685 277.201 432.163 276.977 431.704C276.753 431.245 276.444 430.888 276.049 430.632C275.654 430.376 275.206 430.248 274.705 430.248C274.193 430.248 273.734 430.376 273.329 430.632C272.934 430.888 272.625 431.245 272.401 431.704C272.177 432.163 272.065 432.68 272.065 433.256C272.065 433.832 272.177 434.349 272.401 434.808C272.625 435.267 272.934 435.624 273.329 435.88C273.734 436.136 274.193 436.264 274.705 436.264ZM280.01 437V425.384H281.098V437H280.01ZM286.444 437.256C285.729 437.256 285.089 437.085 284.524 436.744C283.959 436.403 283.516 435.928 283.196 435.32C282.876 434.701 282.716 434.008 282.716 433.24C282.716 432.472 282.871 431.789 283.18 431.192C283.5 430.584 283.937 430.109 284.492 429.768C285.057 429.427 285.697 429.256 286.412 429.256C287.127 429.256 287.767 429.427 288.332 429.768C288.897 430.109 289.34 430.584 289.66 431.192C289.98 431.8 290.14 432.488 290.14 433.256C290.14 434.024 289.98 434.712 289.66 435.32C289.351 435.928 288.913 436.403 288.348 436.744C287.793 437.085 287.159 437.256 286.444 437.256ZM286.412 436.264C286.924 436.264 287.377 436.136 287.772 435.88C288.177 435.624 288.492 435.267 288.716 434.808C288.94 434.349 289.052 433.832 289.052 433.256C289.052 432.68 288.94 432.163 288.716 431.704C288.492 431.245 288.177 430.888 287.772 430.632C287.377 430.376 286.924 430.248 286.412 430.248C285.911 430.248 285.463 430.376 285.068 430.632C284.673 430.888 284.364 431.245 284.14 431.704C283.916 432.152 283.804 432.664 283.804 433.24C283.804 433.827 283.916 434.349 284.14 434.808C284.364 435.267 284.673 435.624 285.068 435.88C285.463 436.136 285.911 436.264 286.412 436.264ZM298.64 429.512V437H297.552V435.896C297.243 436.323 296.864 436.659 296.416 436.904C295.968 437.139 295.477 437.256 294.944 437.256C294.229 437.256 293.589 437.085 293.024 436.744C292.459 436.403 292.016 435.928 291.696 435.32C291.376 434.712 291.216 434.019 291.216 433.24C291.216 432.472 291.371 431.789 291.68 431.192C292 430.584 292.437 430.109 292.992 429.768C293.557 429.427 294.197 429.256 294.912 429.256C295.456 429.256 295.952 429.379 296.4 429.624C296.859 429.859 297.243 430.195 297.552 430.632V429.512H298.64ZM294.912 436.264C295.424 436.264 295.877 436.136 296.272 435.88C296.677 435.624 296.992 435.267 297.216 434.808C297.44 434.349 297.552 433.832 297.552 433.256C297.552 432.68 297.44 432.163 297.216 431.704C296.992 431.245 296.677 430.888 296.272 430.632C295.877 430.376 295.424 430.248 294.912 430.248C294.411 430.248 293.963 430.376 293.568 430.632C293.173 430.888 292.864 431.245 292.64 431.704C292.416 432.152 292.304 432.664 292.304 433.24C292.304 433.827 292.416 434.349 292.64 434.808C292.864 435.267 293.173 435.624 293.568 435.88C293.963 436.136 294.411 436.264 294.912 436.264ZM307.609 425.384V437H306.521V435.896C306.211 436.323 305.833 436.659 305.385 436.904C304.937 437.139 304.446 437.256 303.913 437.256C303.198 437.256 302.558 437.085 301.993 436.744C301.427 436.403 300.985 435.928 300.665 435.32C300.345 434.712 300.185 434.019 300.185 433.24C300.185 432.472 300.339 431.789 300.649 431.192C300.969 430.584 301.406 430.109 301.961 429.768C302.526 429.427 303.166 429.256 303.881 429.256C304.425 429.256 304.921 429.379 305.369 429.624C305.827 429.859 306.211 430.195 306.521 430.632V425.384H307.609ZM303.881 436.264C304.393 436.264 304.846 436.136 305.241 435.88C305.646 435.624 305.961 435.267 306.185 434.808C306.409 434.349 306.521 433.832 306.521 433.256C306.521 432.68 306.409 432.163 306.185 431.704C305.961 431.245 305.646 430.888 305.241 430.632C304.846 430.376 304.393 430.248 303.881 430.248C303.379 430.248 302.931 430.376 302.537 430.632C302.142 430.888 301.833 431.245 301.609 431.704C301.385 432.152 301.273 432.664 301.273 433.24C301.273 433.827 301.385 434.349 301.609 434.808C301.833 435.267 302.142 435.624 302.537 435.88C302.931 436.136 303.379 436.264 303.881 436.264ZM269.975 458V447.088H275.927V448.096H271.175V451.904H274.695V452.88H271.175V458H269.975ZM277.53 458V450.512H278.618V458H277.53ZM278.074 449.056C277.828 449.056 277.62 448.971 277.45 448.8C277.29 448.629 277.21 448.421 277.21 448.176C277.21 447.941 277.29 447.744 277.45 447.584C277.62 447.413 277.828 447.328 278.074 447.328C278.308 447.328 278.511 447.413 278.682 447.584C278.852 447.744 278.938 447.947 278.938 448.192C278.938 448.427 278.852 448.629 278.682 448.8C278.511 448.971 278.308 449.056 278.074 449.056ZM281.299 458V446.384H282.387V458H281.299ZM287.701 450.256C288.373 450.256 288.981 450.421 289.525 450.752C290.069 451.083 290.496 451.536 290.805 452.112C291.114 452.677 291.269 453.312 291.269 454.016C291.269 454.219 291.264 454.373 291.253 454.48H285.093C285.136 455.248 285.386 455.904 285.845 456.448C286.304 456.992 286.928 457.264 287.717 457.264C288.357 457.264 288.885 457.147 289.301 456.912C289.728 456.667 290.069 456.331 290.325 455.904L291.189 456.48C290.837 457.035 290.373 457.472 289.797 457.792C289.221 458.101 288.538 458.256 287.749 458.256C287.024 458.256 286.378 458.085 285.813 457.744C285.248 457.403 284.805 456.928 284.485 456.32C284.165 455.712 284.005 455.024 284.005 454.256C284.005 453.488 284.16 452.8 284.469 452.192C284.789 451.584 285.226 451.109 285.781 450.768C286.346 450.427 286.986 450.256 287.701 450.256ZM290.181 453.584C290.074 452.805 289.813 452.224 289.397 451.84C288.981 451.445 288.416 451.248 287.701 451.248C287.008 451.248 286.437 451.472 285.989 451.92C285.552 452.357 285.274 452.912 285.157 453.584H290.181ZM295.515 458.256C294.79 458.256 294.15 458.101 293.595 457.792C293.051 457.483 292.635 457.045 292.347 456.48L293.323 456C293.718 456.843 294.491 457.264 295.643 457.264C296.198 457.264 296.657 457.163 297.019 456.96C297.382 456.757 297.563 456.443 297.563 456.016C297.563 455.579 297.414 455.253 297.115 455.04C296.827 454.827 296.315 454.688 295.579 454.624C294.555 454.539 293.819 454.309 293.371 453.936C292.934 453.563 292.715 453.067 292.715 452.448C292.715 451.755 292.966 451.216 293.467 450.832C293.969 450.448 294.657 450.256 295.531 450.256C297.014 450.256 298.022 450.843 298.555 452.016L297.579 452.496C297.398 452.069 297.131 451.755 296.779 451.552C296.438 451.349 295.995 451.248 295.451 451.248C294.897 451.248 294.47 451.349 294.171 451.552C293.883 451.755 293.739 452.043 293.739 452.416C293.739 452.768 293.894 453.056 294.203 453.28C294.523 453.493 295.067 453.632 295.835 453.696C296.785 453.781 297.489 454.016 297.947 454.4C298.417 454.773 298.651 455.269 298.651 455.888C298.651 456.389 298.507 456.821 298.219 457.184C297.931 457.536 297.547 457.803 297.067 457.984C296.587 458.165 296.07 458.256 295.515 458.256Z" fill="#3B3B3B"/>
<path d="M184.516 437.256C183.598 437.256 182.804 437.032 182.132 436.584C181.47 436.125 180.958 435.475 180.596 434.632C180.244 433.779 180.068 432.76 180.068 431.576C180.068 430.381 180.238 429.357 180.58 428.504C180.932 427.64 181.428 426.984 182.068 426.536C182.718 426.077 183.486 425.848 184.372 425.848C185.278 425.848 186.052 426.051 186.692 426.456C187.342 426.851 187.849 427.411 188.212 428.136L187.252 428.696C186.91 428.067 186.51 427.619 186.052 427.352C185.593 427.075 185.033 426.936 184.372 426.936C183.422 426.936 182.676 427.347 182.132 428.168C181.598 428.979 181.332 430.109 181.332 431.56C181.332 432.509 181.454 433.331 181.7 434.024C181.945 434.717 182.297 435.251 182.756 435.624C183.214 435.987 183.748 436.168 184.356 436.168C185.113 436.168 185.7 436.003 186.116 435.672C186.542 435.331 186.937 434.803 187.3 434.088L188.308 434.696C187.924 435.528 187.412 436.163 186.772 436.6C186.142 437.037 185.39 437.256 184.516 437.256ZM193.147 437.256C192.432 437.256 191.792 437.085 191.227 436.744C190.662 436.403 190.219 435.928 189.899 435.32C189.579 434.701 189.419 434.008 189.419 433.24C189.419 432.472 189.574 431.789 189.883 431.192C190.203 430.584 190.64 430.109 191.195 429.768C191.76 429.427 192.4 429.256 193.115 429.256C193.83 429.256 194.47 429.427 195.035 429.768C195.6 430.109 196.043 430.584 196.363 431.192C196.683 431.8 196.843 432.488 196.843 433.256C196.843 434.024 196.683 434.712 196.363 435.32C196.054 435.928 195.616 436.403 195.051 436.744C194.496 437.085 193.862 437.256 193.147 437.256ZM193.115 436.264C193.627 436.264 194.08 436.136 194.475 435.88C194.88 435.624 195.195 435.267 195.419 434.808C195.643 434.349 195.755 433.832 195.755 433.256C195.755 432.68 195.643 432.163 195.419 431.704C195.195 431.245 194.88 430.888 194.475 430.632C194.08 430.376 193.627 430.248 193.115 430.248C192.614 430.248 192.166 430.376 191.771 430.632C191.376 430.888 191.067 431.245 190.843 431.704C190.619 432.152 190.507 432.664 190.507 433.24C190.507 433.827 190.619 434.349 190.843 434.808C191.067 435.267 191.376 435.624 191.771 435.88C192.166 436.136 192.614 436.264 193.115 436.264ZM198.463 437V425.384H199.551V437H198.463ZM201.713 437V425.384H202.801V437H201.713ZM211.843 429.512V437H210.755V435.896C210.446 436.323 210.067 436.659 209.619 436.904C209.171 437.139 208.68 437.256 208.147 437.256C207.432 437.256 206.792 437.085 206.227 436.744C205.662 436.403 205.219 435.928 204.899 435.32C204.579 434.712 204.419 434.019 204.419 433.24C204.419 432.472 204.574 431.789 204.883 431.192C205.203 430.584 205.64 430.109 206.195 429.768C206.76 429.427 207.4 429.256 208.115 429.256C208.659 429.256 209.155 429.379 209.603 429.624C210.062 429.859 210.446 430.195 210.755 430.632V429.512H211.843ZM208.115 436.264C208.627 436.264 209.08 436.136 209.475 435.88C209.88 435.624 210.195 435.267 210.419 434.808C210.643 434.349 210.755 433.832 210.755 433.256C210.755 432.68 210.643 432.163 210.419 431.704C210.195 431.245 209.88 430.888 209.475 430.632C209.08 430.376 208.627 430.248 208.115 430.248C207.614 430.248 207.166 430.376 206.771 430.632C206.376 430.888 206.067 431.245 205.843 431.704C205.619 432.152 205.507 432.664 205.507 433.24C205.507 433.827 205.619 434.349 205.843 434.808C206.067 435.267 206.376 435.624 206.771 435.88C207.166 436.136 207.614 436.264 208.115 436.264ZM217.596 429.256C218.31 429.256 218.945 429.427 219.5 429.768C220.065 430.109 220.502 430.584 220.812 431.192C221.132 431.789 221.292 432.472 221.292 433.24C221.292 434.019 221.132 434.712 220.812 435.32C220.492 435.928 220.049 436.403 219.484 436.744C218.918 437.085 218.278 437.256 217.564 437.256C217.03 437.256 216.54 437.139 216.092 436.904C215.644 436.659 215.265 436.323 214.956 435.896V437H213.868V425.384H214.956V430.632C215.265 430.195 215.644 429.859 216.092 429.624C216.55 429.379 217.052 429.256 217.596 429.256ZM217.596 436.264C218.097 436.264 218.545 436.136 218.94 435.88C219.334 435.624 219.644 435.267 219.868 434.808C220.092 434.349 220.204 433.827 220.204 433.24C220.204 432.664 220.092 432.152 219.868 431.704C219.644 431.245 219.334 430.888 218.94 430.632C218.545 430.376 218.097 430.248 217.596 430.248C217.084 430.248 216.625 430.376 216.22 430.632C215.825 430.888 215.516 431.245 215.292 431.704C215.068 432.163 214.956 432.68 214.956 433.256C214.956 433.832 215.068 434.349 215.292 434.808C215.516 435.267 215.825 435.624 216.22 435.88C216.625 436.136 217.084 436.264 217.596 436.264Z" fill="#3B3B3B"/>
</svg>
