<svg width="277" height="556" viewBox="0 0 277 556" fill="none" xmlns="http://www.w3.org/2000/svg">
<path d="M88.6 146V132.36H90.1V138.26H97.3V132.36H98.8V146H97.3V139.5H90.1V146H88.6ZM105.698 136.32C106.538 136.32 107.298 136.527 107.978 136.94C108.658 137.353 109.192 137.92 109.578 138.64C109.965 139.347 110.158 140.14 110.158 141.02C110.158 141.273 110.152 141.467 110.138 141.6H102.438C102.492 142.56 102.805 143.38 103.378 144.06C103.952 144.74 104.732 145.08 105.718 145.08C106.518 145.08 107.178 144.933 107.698 144.64C108.232 144.333 108.658 143.913 108.978 143.38L110.058 144.1C109.618 144.793 109.038 145.34 108.318 145.74C107.598 146.127 106.745 146.32 105.758 146.32C104.852 146.32 104.045 146.107 103.338 145.68C102.632 145.253 102.078 144.66 101.678 143.9C101.278 143.14 101.078 142.28 101.078 141.32C101.078 140.36 101.272 139.5 101.658 138.74C102.058 137.98 102.605 137.387 103.298 136.96C104.005 136.533 104.805 136.32 105.698 136.32ZM108.798 140.48C108.665 139.507 108.338 138.78 107.818 138.3C107.298 137.807 106.592 137.56 105.698 137.56C104.832 137.56 104.118 137.84 103.558 138.4C103.012 138.947 102.665 139.64 102.518 140.48H108.798ZM118.901 146H117.341L114.901 142.1L112.461 146H110.941L113.941 141.2L111.121 136.64H112.661L114.921 140.32L117.301 136.64H118.801L115.861 141.18L118.901 146ZM134.532 141.6V142.96H132.792V146H131.432V142.96H124.592V141.6L131.432 132.36H132.792V141.6H134.532ZM126.032 141.6H131.432V134.48L126.032 141.6ZM136.257 145.14C136.257 144.553 136.39 144.013 136.657 143.52C136.937 143.013 137.277 142.567 137.677 142.18C138.077 141.78 138.623 141.293 139.317 140.72C139.743 140.373 139.97 140.187 139.997 140.16C140.863 139.427 141.537 138.707 142.017 138C142.497 137.293 142.737 136.48 142.737 135.56C142.737 134.92 142.517 134.407 142.077 134.02C141.65 133.62 141.083 133.42 140.377 133.42C139.723 133.42 139.123 133.587 138.577 133.92C138.043 134.24 137.543 134.713 137.077 135.34L135.977 134.4C136.51 133.667 137.163 133.093 137.937 132.68C138.723 132.267 139.537 132.06 140.377 132.06C141.563 132.06 142.51 132.38 143.217 133.02C143.923 133.647 144.277 134.493 144.277 135.56C144.277 136.68 143.957 137.68 143.317 138.56C142.677 139.44 141.797 140.353 140.677 141.3C140.397 141.54 140.263 141.653 140.277 141.64C139.45 142.32 138.837 142.88 138.437 143.32C138.037 143.76 137.837 144.2 137.837 144.64H144.457V146H136.257V145.14ZM151.017 146.32C150.15 146.32 149.364 146.147 148.657 145.8C147.95 145.453 147.39 144.96 146.977 144.32C146.564 143.68 146.357 142.947 146.357 142.12C146.357 141.2 146.59 140.44 147.057 139.84C147.537 139.24 148.224 138.807 149.117 138.54C147.664 138.02 146.937 137.047 146.937 135.62C146.937 134.887 147.117 134.253 147.477 133.72C147.85 133.187 148.344 132.78 148.957 132.5C149.584 132.207 150.264 132.06 150.997 132.06C151.744 132.06 152.424 132.207 153.037 132.5C153.664 132.78 154.157 133.193 154.517 133.74C154.877 134.273 155.057 134.9 155.057 135.62C155.057 137.047 154.337 138.02 152.897 138.54C153.804 138.847 154.484 139.293 154.937 139.88C155.404 140.453 155.637 141.2 155.637 142.12C155.637 142.933 155.437 143.66 155.037 144.3C154.637 144.94 154.084 145.44 153.377 145.8C152.67 146.147 151.884 146.32 151.017 146.32ZM151.017 137.88C151.83 137.88 152.457 137.693 152.897 137.32C153.35 136.947 153.577 136.387 153.577 135.64C153.577 134.88 153.344 134.32 152.877 133.96C152.424 133.587 151.797 133.4 150.997 133.4C150.197 133.4 149.564 133.587 149.097 133.96C148.63 134.333 148.397 134.887 148.397 135.62C148.397 136.38 148.637 136.947 149.117 137.32C149.597 137.693 150.23 137.88 151.017 137.88ZM150.977 144.98C151.977 144.98 152.757 144.733 153.317 144.24C153.89 143.733 154.177 143.02 154.177 142.1C154.177 141.167 153.897 140.453 153.337 139.96C152.777 139.467 151.997 139.22 150.997 139.22C150.01 139.22 149.23 139.467 148.657 139.96C148.084 140.453 147.797 141.16 147.797 142.08C147.797 143.013 148.077 143.733 148.637 144.24C149.21 144.733 149.99 144.98 150.977 144.98ZM158.111 146V132.36H165.751V133.62H159.611V138.38H164.411V139.6H159.611V144.76H165.811V146H158.111ZM168.17 146V132.36H175.61V133.62H169.67V138.38H174.07V139.6H169.67V146H168.17ZM182.273 146.32C181.127 146.32 180.133 146.04 179.293 145.48C178.467 144.907 177.827 144.093 177.373 143.04C176.933 141.973 176.713 140.7 176.713 139.22C176.713 137.727 176.927 136.447 177.353 135.38C177.793 134.3 178.413 133.48 179.213 132.92C180.027 132.347 180.987 132.06 182.093 132.06C183.227 132.06 184.193 132.313 184.993 132.82C185.807 133.313 186.44 134.013 186.893 134.92L185.693 135.62C185.267 134.833 184.767 134.273 184.193 133.94C183.62 133.593 182.92 133.42 182.093 133.42C180.907 133.42 179.973 133.933 179.293 134.96C178.627 135.973 178.293 137.387 178.293 139.2C178.293 140.387 178.447 141.413 178.753 142.28C179.06 143.147 179.5 143.813 180.073 144.28C180.647 144.733 181.313 144.96 182.073 144.96C183.02 144.96 183.753 144.753 184.273 144.34C184.807 143.913 185.3 143.253 185.753 142.36L187.013 143.12C186.533 144.16 185.893 144.953 185.093 145.5C184.307 146.047 183.367 146.32 182.273 146.32Z" fill="#3B3B3B"/>
<circle cx="139" cy="60" r="60" fill="#428EFC"/>
<path d="M7.6 285V271.36H9.1V277.26H16.3V271.36H17.8V285H16.3V278.5H9.1V285H7.6ZM24.6984 275.32C25.5384 275.32 26.2984 275.527 26.9784 275.94C27.6584 276.353 28.1918 276.92 28.5784 277.64C28.9651 278.347 29.1584 279.14 29.1584 280.02C29.1584 280.273 29.1518 280.467 29.1384 280.6H21.4384C21.4918 281.56 21.8051 282.38 22.3784 283.06C22.9518 283.74 23.7318 284.08 24.7184 284.08C25.5184 284.08 26.1784 283.933 26.6984 283.64C27.2318 283.333 27.6584 282.913 27.9784 282.38L29.0584 283.1C28.6184 283.793 28.0384 284.34 27.3184 284.74C26.5984 285.127 25.7451 285.32 24.7584 285.32C23.8518 285.32 23.0451 285.107 22.3384 284.68C21.6318 284.253 21.0784 283.66 20.6784 282.9C20.2784 282.14 20.0784 281.28 20.0784 280.32C20.0784 279.36 20.2718 278.5 20.6584 277.74C21.0584 276.98 21.6051 276.387 22.2984 275.96C23.0051 275.533 23.8051 275.32 24.6984 275.32ZM27.7984 279.48C27.6651 278.507 27.3384 277.78 26.8184 277.3C26.2984 276.807 25.5918 276.56 24.6984 276.56C23.8318 276.56 23.1184 276.84 22.5584 277.4C22.0118 277.947 21.6651 278.64 21.5184 279.48H27.7984ZM37.9008 285H36.3408L33.9008 281.1L31.4608 285H29.9408L32.9408 280.2L30.1208 275.64H31.6608L33.9208 279.32L36.3008 275.64H37.8008L34.8608 280.18L37.9008 285ZM43.7722 284.14C43.7722 283.553 43.9055 283.013 44.1722 282.52C44.4522 282.013 44.7922 281.567 45.1922 281.18C45.5922 280.78 46.1389 280.293 46.8322 279.72C47.2589 279.373 47.4855 279.187 47.5122 279.16C48.3789 278.427 49.0522 277.707 49.5322 277C50.0122 276.293 50.2522 275.48 50.2522 274.56C50.2522 273.92 50.0322 273.407 49.5922 273.02C49.1655 272.62 48.5989 272.42 47.8922 272.42C47.2389 272.42 46.6389 272.587 46.0922 272.92C45.5589 273.24 45.0589 273.713 44.5922 274.34L43.4922 273.4C44.0255 272.667 44.6789 272.093 45.4522 271.68C46.2389 271.267 47.0522 271.06 47.8922 271.06C49.0789 271.06 50.0255 271.38 50.7322 272.02C51.4389 272.647 51.7922 273.493 51.7922 274.56C51.7922 275.68 51.4722 276.68 50.8322 277.56C50.1922 278.44 49.3122 279.353 48.1922 280.3C47.9122 280.54 47.7789 280.653 47.7922 280.64C46.9655 281.32 46.3522 281.88 45.9522 282.32C45.5522 282.76 45.3522 283.2 45.3522 283.64H51.9722V285H43.7722V284.14ZM61.1727 277.66C61.9593 277.86 62.566 278.247 62.9927 278.82C63.4193 279.393 63.6327 280.147 63.6327 281.08C63.6327 282.293 63.266 283.253 62.5327 283.96C61.7993 284.653 60.7927 285 59.5127 285H54.5527V271.36H59.0527C60.266 271.36 61.2193 271.68 61.9127 272.32C62.606 272.947 62.9527 273.787 62.9527 274.84C62.9527 275.52 62.7993 276.107 62.4927 276.6C62.186 277.08 61.746 277.433 61.1727 277.66ZM56.0527 277.18H59.2327C60.6593 277.18 61.3727 276.4 61.3727 274.84C61.3727 274.133 61.166 273.587 60.7527 273.2C60.3393 272.813 59.766 272.62 59.0327 272.62H56.0527V277.18ZM59.3127 283.76C60.166 283.76 60.8327 283.52 61.3127 283.04C61.806 282.56 62.0527 281.907 62.0527 281.08C62.0527 280.253 61.806 279.607 61.3127 279.14C60.8327 278.66 60.166 278.42 59.3127 278.42H56.0527V283.76H59.3127ZM74.517 285L73.117 281.18H67.457L66.197 285H64.697L69.537 271.36H70.937L75.917 285H74.517ZM67.917 279.94H72.657L70.217 273.32L67.917 279.94ZM77.7363 285V271.36H85.1763V272.62H79.2363V277.38H83.6363V278.6H79.2363V285H77.7363ZM90.6197 271.06C91.473 271.06 92.2464 271.293 92.9397 271.76C93.6464 272.213 94.193 272.853 94.5797 273.68C94.9797 274.507 95.1797 275.44 95.1797 276.48C95.1797 278.427 94.8464 280.067 94.1797 281.4C93.5264 282.72 92.6264 283.707 91.4797 284.36C90.3464 285 89.0597 285.32 87.6197 285.32V284.04C89.2464 284.04 90.5864 283.613 91.6397 282.76C92.693 281.907 93.3664 280.693 93.6597 279.12C93.3797 279.613 92.953 279.993 92.3797 280.26C91.8064 280.527 91.233 280.66 90.6597 280.66C89.8064 280.66 89.033 280.453 88.3397 280.04C87.6464 279.627 87.0997 279.06 86.6997 278.34C86.2997 277.607 86.0997 276.78 86.0997 275.86C86.0997 274.94 86.293 274.12 86.6797 273.4C87.0797 272.667 87.6197 272.093 88.2997 271.68C88.993 271.267 89.7664 271.06 90.6197 271.06ZM90.6597 279.42C91.633 279.42 92.3997 279.107 92.9597 278.48C93.533 277.84 93.8197 277.04 93.8197 276.08C93.8197 275.36 93.6797 274.713 93.3997 274.14C93.1197 273.553 92.7397 273.1 92.2597 272.78C91.7797 272.46 91.2464 272.3 90.6597 272.3C90.0597 272.3 89.513 272.453 89.0197 272.76C88.5397 273.067 88.1597 273.493 87.8797 274.04C87.5997 274.573 87.4597 275.18 87.4597 275.86C87.4597 276.54 87.5997 277.153 87.8797 277.7C88.1597 278.233 88.5397 278.653 89.0197 278.96C89.513 279.267 90.0597 279.42 90.6597 279.42ZM97.9706 285V271.36H105.611V272.62H99.4706V277.38H104.271V278.6H99.4706V283.76H105.671V285H97.9706Z" fill="#3B3B3B"/>
<path d="M1.6 549V535.36H3.1V541.26H10.3V535.36H11.8V549H10.3V542.5H3.1V549H1.6ZM18.6984 539.32C19.5384 539.32 20.2984 539.527 20.9784 539.94C21.6584 540.353 22.1918 540.92 22.5784 541.64C22.9651 542.347 23.1584 543.14 23.1584 544.02C23.1584 544.273 23.1518 544.467 23.1384 544.6H15.4384C15.4918 545.56 15.8051 546.38 16.3784 547.06C16.9518 547.74 17.7318 548.08 18.7184 548.08C19.5184 548.08 20.1784 547.933 20.6984 547.64C21.2318 547.333 21.6584 546.913 21.9784 546.38L23.0584 547.1C22.6184 547.793 22.0384 548.34 21.3184 548.74C20.5984 549.127 19.7451 549.32 18.7584 549.32C17.8518 549.32 17.0451 549.107 16.3384 548.68C15.6318 548.253 15.0784 547.66 14.6784 546.9C14.2784 546.14 14.0784 545.28 14.0784 544.32C14.0784 543.36 14.2718 542.5 14.6584 541.74C15.0584 540.98 15.6051 540.387 16.2984 539.96C17.0051 539.533 17.8051 539.32 18.6984 539.32ZM21.7984 543.48C21.6651 542.507 21.3384 541.78 20.8184 541.3C20.2984 540.807 19.5918 540.56 18.6984 540.56C17.8318 540.56 17.1184 540.84 16.5584 541.4C16.0118 541.947 15.6651 542.64 15.5184 543.48H21.7984ZM31.9008 549H30.3408L27.9008 545.1L25.4608 549H23.9408L26.9408 544.2L24.1208 539.64H25.6608L27.9208 543.32L30.3008 539.64H31.8008L28.8608 544.18L31.9008 549ZM42.5522 549.32C41.6855 549.32 40.8989 549.147 40.1922 548.8C39.4855 548.453 38.9255 547.96 38.5122 547.32C38.0989 546.68 37.8922 545.947 37.8922 545.12C37.8922 544.2 38.1255 543.44 38.5922 542.84C39.0722 542.24 39.7589 541.807 40.6522 541.54C39.1989 541.02 38.4722 540.047 38.4722 538.62C38.4722 537.887 38.6522 537.253 39.0122 536.72C39.3855 536.187 39.8789 535.78 40.4922 535.5C41.1189 535.207 41.7989 535.06 42.5322 535.06C43.2789 535.06 43.9589 535.207 44.5722 535.5C45.1989 535.78 45.6922 536.193 46.0522 536.74C46.4122 537.273 46.5922 537.9 46.5922 538.62C46.5922 540.047 45.8722 541.02 44.4322 541.54C45.3389 541.847 46.0189 542.293 46.4722 542.88C46.9389 543.453 47.1722 544.2 47.1722 545.12C47.1722 545.933 46.9722 546.66 46.5722 547.3C46.1722 547.94 45.6189 548.44 44.9122 548.8C44.2055 549.147 43.4189 549.32 42.5522 549.32ZM42.5522 540.88C43.3655 540.88 43.9922 540.693 44.4322 540.32C44.8855 539.947 45.1122 539.387 45.1122 538.64C45.1122 537.88 44.8789 537.32 44.4122 536.96C43.9589 536.587 43.3322 536.4 42.5322 536.4C41.7322 536.4 41.0989 536.587 40.6322 536.96C40.1655 537.333 39.9322 537.887 39.9322 538.62C39.9322 539.38 40.1722 539.947 40.6522 540.32C41.1322 540.693 41.7655 540.88 42.5522 540.88ZM42.5122 547.98C43.5122 547.98 44.2922 547.733 44.8522 547.24C45.4255 546.733 45.7122 546.02 45.7122 545.1C45.7122 544.167 45.4322 543.453 44.8722 542.96C44.3122 542.467 43.5322 542.22 42.5322 542.22C41.5455 542.22 40.7655 542.467 40.1922 542.96C39.6189 543.453 39.3322 544.16 39.3322 545.08C39.3322 546.013 39.6122 546.733 40.1722 547.24C40.7455 547.733 41.5255 547.98 42.5122 547.98ZM53.8064 540.16C55.1264 540.16 56.1531 540.56 56.8864 541.36C57.6331 542.16 58.0064 543.273 58.0064 544.7C58.0064 546.153 57.6131 547.287 56.8264 548.1C56.0531 548.913 54.9664 549.32 53.5664 549.32C52.6597 549.32 51.8197 549.167 51.0464 548.86C50.2731 548.54 49.6531 548.093 49.1864 547.52L50.2464 546.78C50.5797 547.193 51.0397 547.513 51.6264 547.74C52.2264 547.967 52.8864 548.08 53.6064 548.08C54.5664 548.08 55.3131 547.787 55.8464 547.2C56.3931 546.6 56.6664 545.767 56.6664 544.7C56.6531 543.66 56.3864 542.853 55.8664 542.28C55.3464 541.693 54.6197 541.4 53.6864 541.4C53.0997 541.4 52.4797 541.5 51.8264 541.7C51.1731 541.887 50.5597 542.153 49.9864 542.5V535.36H57.3064V536.76H51.3464V540.6C52.1864 540.307 53.0064 540.16 53.8064 540.16ZM64.7173 535.06C65.5707 535.06 66.344 535.293 67.0373 535.76C67.744 536.213 68.2907 536.853 68.6773 537.68C69.0773 538.507 69.2773 539.44 69.2773 540.48C69.2773 542.427 68.944 544.067 68.2773 545.4C67.624 546.72 66.724 547.707 65.5773 548.36C64.444 549 63.1573 549.32 61.7173 549.32V548.04C63.344 548.04 64.684 547.613 65.7373 546.76C66.7907 545.907 67.464 544.693 67.7573 543.12C67.4773 543.613 67.0507 543.993 66.4773 544.26C65.904 544.527 65.3307 544.66 64.7573 544.66C63.904 544.66 63.1307 544.453 62.4373 544.04C61.744 543.627 61.1973 543.06 60.7973 542.34C60.3973 541.607 60.1973 540.78 60.1973 539.86C60.1973 538.94 60.3907 538.12 60.7773 537.4C61.1773 536.667 61.7173 536.093 62.3973 535.68C63.0907 535.267 63.864 535.06 64.7173 535.06ZM64.7573 543.42C65.7307 543.42 66.4973 543.107 67.0573 542.48C67.6307 541.84 67.9173 541.04 67.9173 540.08C67.9173 539.36 67.7773 538.713 67.4973 538.14C67.2173 537.553 66.8373 537.1 66.3573 536.78C65.8773 536.46 65.344 536.3 64.7573 536.3C64.1573 536.3 63.6107 536.453 63.1173 536.76C62.6373 537.067 62.2573 537.493 61.9773 538.04C61.6973 538.573 61.5573 539.18 61.5573 539.86C61.5573 540.54 61.6973 541.153 61.9773 541.7C62.2573 542.233 62.6373 542.653 63.1173 542.96C63.6107 543.267 64.1573 543.42 64.7573 543.42ZM70.8777 548.14C70.8777 547.553 71.011 547.013 71.2777 546.52C71.5577 546.013 71.8977 545.567 72.2977 545.18C72.6977 544.78 73.2443 544.293 73.9377 543.72C74.3643 543.373 74.591 543.187 74.6177 543.16C75.4843 542.427 76.1577 541.707 76.6377 541C77.1177 540.293 77.3577 539.48 77.3577 538.56C77.3577 537.92 77.1377 537.407 76.6977 537.02C76.271 536.62 75.7043 536.42 74.9977 536.42C74.3443 536.42 73.7443 536.587 73.1977 536.92C72.6643 537.24 72.1643 537.713 71.6977 538.34L70.5977 537.4C71.131 536.667 71.7843 536.093 72.5577 535.68C73.3443 535.267 74.1577 535.06 74.9977 535.06C76.1843 535.06 77.131 535.38 77.8377 536.02C78.5443 536.647 78.8977 537.493 78.8977 538.56C78.8977 539.68 78.5777 540.68 77.9377 541.56C77.2977 542.44 76.4177 543.353 75.2977 544.3C75.0177 544.54 74.8843 544.653 74.8977 544.64C74.071 545.32 73.4577 545.88 73.0577 546.32C72.6577 546.76 72.4577 547.2 72.4577 547.64H79.0777V549H70.8777V548.14ZM81.6581 549V535.36H89.2981V536.62H83.1581V541.38H87.9581V542.6H83.1581V547.76H89.3581V549H81.6581ZM91.7167 549V535.36H99.1567V536.62H93.2167V541.38H97.6167V542.6H93.2167V549H91.7167Z" fill="#3B3B3B"/>
<path d="M174.6 428V414.36H176.1V420.26H183.3V414.36H184.8V428H183.3V421.5H176.1V428H174.6ZM191.698 418.32C192.538 418.32 193.298 418.527 193.978 418.94C194.658 419.353 195.192 419.92 195.578 420.64C195.965 421.347 196.158 422.14 196.158 423.02C196.158 423.273 196.152 423.467 196.138 423.6H188.438C188.492 424.56 188.805 425.38 189.378 426.06C189.952 426.74 190.732 427.08 191.718 427.08C192.518 427.08 193.178 426.933 193.698 426.64C194.232 426.333 194.658 425.913 194.978 425.38L196.058 426.1C195.618 426.793 195.038 427.34 194.318 427.74C193.598 428.127 192.745 428.32 191.758 428.32C190.852 428.32 190.045 428.107 189.338 427.68C188.632 427.253 188.078 426.66 187.678 425.9C187.278 425.14 187.078 424.28 187.078 423.32C187.078 422.36 187.272 421.5 187.658 420.74C188.058 419.98 188.605 419.387 189.298 418.96C190.005 418.533 190.805 418.32 191.698 418.32ZM194.798 422.48C194.665 421.507 194.338 420.78 193.818 420.3C193.298 419.807 192.592 419.56 191.698 419.56C190.832 419.56 190.118 419.84 189.558 420.4C189.012 420.947 188.665 421.64 188.518 422.48H194.798ZM204.901 428H203.341L200.901 424.1L198.461 428H196.941L199.941 423.2L197.121 418.64H198.661L200.921 422.32L203.301 418.64H204.801L201.861 423.18L204.901 428ZM215.576 428V414.36H223.016V415.62H217.076V420.38H221.476V421.6H217.076V428H215.576ZM228.76 419.16C230.08 419.16 231.106 419.56 231.84 420.36C232.586 421.16 232.96 422.273 232.96 423.7C232.96 425.153 232.566 426.287 231.78 427.1C231.006 427.913 229.92 428.32 228.52 428.32C227.613 428.32 226.773 428.167 226 427.86C225.226 427.54 224.606 427.093 224.14 426.52L225.2 425.78C225.533 426.193 225.993 426.513 226.58 426.74C227.18 426.967 227.84 427.08 228.56 427.08C229.52 427.08 230.266 426.787 230.8 426.2C231.346 425.6 231.62 424.767 231.62 423.7C231.606 422.66 231.34 421.853 230.82 421.28C230.3 420.693 229.573 420.4 228.64 420.4C228.053 420.4 227.433 420.5 226.78 420.7C226.126 420.887 225.513 421.153 224.94 421.5V414.36H232.26V415.76H226.3V419.6C227.14 419.307 227.96 419.16 228.76 419.16ZM235.81 428V414.36H243.25V415.62H237.31V420.38H241.71V421.6H237.31V428H235.81ZM248.994 419.16C250.314 419.16 251.341 419.56 252.074 420.36C252.821 421.16 253.194 422.273 253.194 423.7C253.194 425.153 252.801 426.287 252.014 427.1C251.241 427.913 250.154 428.32 248.754 428.32C247.847 428.32 247.007 428.167 246.234 427.86C245.461 427.54 244.841 427.093 244.374 426.52L245.434 425.78C245.767 426.193 246.227 426.513 246.814 426.74C247.414 426.967 248.074 427.08 248.794 427.08C249.754 427.08 250.501 426.787 251.034 426.2C251.581 425.6 251.854 424.767 251.854 423.7C251.841 422.66 251.574 421.853 251.054 421.28C250.534 420.693 249.807 420.4 248.874 420.4C248.287 420.4 247.667 420.5 247.014 420.7C246.361 420.887 245.747 421.153 245.174 421.5V414.36H252.494V415.76H246.534V419.6C247.374 419.307 248.194 419.16 248.994 419.16ZM256.045 428V414.36H263.485V415.62H257.545V420.38H261.945V421.6H257.545V428H256.045ZM269.228 419.16C270.548 419.16 271.575 419.56 272.308 420.36C273.055 421.16 273.428 422.273 273.428 423.7C273.428 425.153 273.035 426.287 272.248 427.1C271.475 427.913 270.388 428.32 268.988 428.32C268.082 428.32 267.242 428.167 266.468 427.86C265.695 427.54 265.075 427.093 264.608 426.52L265.668 425.78C266.002 426.193 266.462 426.513 267.048 426.74C267.648 426.967 268.308 427.08 269.028 427.08C269.988 427.08 270.735 426.787 271.268 426.2C271.815 425.6 272.088 424.767 272.088 423.7C272.075 422.66 271.808 421.853 271.288 421.28C270.768 420.693 270.042 420.4 269.108 420.4C268.522 420.4 267.902 420.5 267.248 420.7C266.595 420.887 265.982 421.153 265.408 421.5V414.36H272.728V415.76H266.768V419.6C267.608 419.307 268.428 419.16 269.228 419.16Z" fill="#3B3B3B"/>
<path d="M174.6 549V535.36H176.1V541.26H183.3V535.36H184.8V549H183.3V542.5H176.1V549H174.6ZM191.698 539.32C192.538 539.32 193.298 539.527 193.978 539.94C194.658 540.353 195.192 540.92 195.578 541.64C195.965 542.347 196.158 543.14 196.158 544.02C196.158 544.273 196.152 544.467 196.138 544.6H188.438C188.492 545.56 188.805 546.38 189.378 547.06C189.952 547.74 190.732 548.08 191.718 548.08C192.518 548.08 193.178 547.933 193.698 547.64C194.232 547.333 194.658 546.913 194.978 546.38L196.058 547.1C195.618 547.793 195.038 548.34 194.318 548.74C193.598 549.127 192.745 549.32 191.758 549.32C190.852 549.32 190.045 549.107 189.338 548.68C188.632 548.253 188.078 547.66 187.678 546.9C187.278 546.14 187.078 545.28 187.078 544.32C187.078 543.36 187.272 542.5 187.658 541.74C188.058 540.98 188.605 540.387 189.298 539.96C190.005 539.533 190.805 539.32 191.698 539.32ZM194.798 543.48C194.665 542.507 194.338 541.78 193.818 541.3C193.298 540.807 192.592 540.56 191.698 540.56C190.832 540.56 190.118 540.84 189.558 541.4C189.012 541.947 188.665 542.64 188.518 543.48H194.798ZM204.901 549H203.341L200.901 545.1L198.461 549H196.941L199.941 544.2L197.121 539.64H198.661L200.921 543.32L203.301 539.64H204.801L201.861 544.18L204.901 549ZM215.432 549.32C214.539 549.32 213.719 549.013 212.972 548.4C212.226 547.787 211.639 546.94 211.212 545.86C210.786 544.767 210.572 543.54 210.572 542.18C210.572 540.82 210.786 539.6 211.212 538.52C211.639 537.427 212.219 536.58 212.952 535.98C213.699 535.367 214.519 535.06 215.412 535.06C216.306 535.06 217.119 535.367 217.852 535.98C218.599 536.58 219.186 537.427 219.612 538.52C220.039 539.6 220.252 540.82 220.252 542.18C220.252 543.54 220.039 544.767 219.612 545.86C219.186 546.94 218.606 547.787 217.872 548.4C217.139 549.013 216.326 549.32 215.432 549.32ZM215.412 548C216.052 548 216.619 547.76 217.112 547.28C217.606 546.787 217.992 546.1 218.272 545.22C218.552 544.327 218.692 543.313 218.692 542.18C218.692 541.047 218.552 540.04 218.272 539.16C217.992 538.28 217.606 537.6 217.112 537.12C216.619 536.627 216.052 536.38 215.412 536.38C214.772 536.38 214.199 536.627 213.692 537.12C213.199 537.6 212.812 538.28 212.532 539.16C212.252 540.04 212.112 541.047 212.112 542.18C212.112 543.313 212.252 544.327 212.532 545.22C212.812 546.1 213.199 546.787 213.692 547.28C214.199 547.76 214.772 548 215.412 548ZM222.783 549V535.36H230.223V536.62H224.283V541.38H228.683V542.6H224.283V549H222.783ZM231.007 548.14C231.007 547.553 231.14 547.013 231.407 546.52C231.687 546.013 232.027 545.567 232.427 545.18C232.827 544.78 233.373 544.293 234.067 543.72C234.493 543.373 234.72 543.187 234.747 543.16C235.613 542.427 236.287 541.707 236.767 541C237.247 540.293 237.487 539.48 237.487 538.56C237.487 537.92 237.267 537.407 236.827 537.02C236.4 536.62 235.833 536.42 235.127 536.42C234.473 536.42 233.873 536.587 233.327 536.92C232.793 537.24 232.293 537.713 231.827 538.34L230.727 537.4C231.26 536.667 231.913 536.093 232.687 535.68C233.473 535.267 234.287 535.06 235.127 535.06C236.313 535.06 237.26 535.38 237.967 536.02C238.673 536.647 239.027 537.493 239.027 538.56C239.027 539.68 238.707 540.68 238.067 541.56C237.427 542.44 236.547 543.353 235.427 544.3C235.147 544.54 235.013 544.653 235.027 544.64C234.2 545.32 233.587 545.88 233.187 546.32C232.787 546.76 232.587 547.2 232.587 547.64H239.207V549H231.007V548.14ZM245.947 540.16C247.267 540.16 248.294 540.56 249.027 541.36C249.774 542.16 250.147 543.273 250.147 544.7C250.147 546.153 249.754 547.287 248.967 548.1C248.194 548.913 247.107 549.32 245.707 549.32C244.8 549.32 243.96 549.167 243.187 548.86C242.414 548.54 241.794 548.093 241.327 547.52L242.387 546.78C242.72 547.193 243.18 547.513 243.767 547.74C244.367 547.967 245.027 548.08 245.747 548.08C246.707 548.08 247.454 547.787 247.987 547.2C248.534 546.6 248.807 545.767 248.807 544.7C248.794 543.66 248.527 542.853 248.007 542.28C247.487 541.693 246.76 541.4 245.827 541.4C245.24 541.4 244.62 541.5 243.967 541.7C243.314 541.887 242.7 542.153 242.127 542.5V535.36H249.447V536.76H243.487V540.6C244.327 540.307 245.147 540.16 245.947 540.16ZM258.378 541.74C259.111 541.967 259.705 542.4 260.158 543.04C260.611 543.68 260.838 544.42 260.838 545.26C260.838 546.033 260.645 546.733 260.258 547.36C259.885 547.973 259.365 548.453 258.698 548.8C258.045 549.147 257.325 549.32 256.538 549.32C255.551 549.32 254.705 549.067 253.998 548.56C253.291 548.053 252.765 547.373 252.418 546.52L253.618 545.82C253.938 546.5 254.345 547.04 254.838 547.44C255.345 547.827 255.931 548.02 256.598 548.02C257.385 548.02 258.038 547.76 258.558 547.24C259.091 546.72 259.358 546.06 259.358 545.26C259.358 544.433 259.091 543.753 258.558 543.22C258.025 542.687 257.345 542.42 256.518 542.42H255.558V541.18H256.438C257.171 541.18 257.758 540.947 258.198 540.48C258.638 540 258.858 539.387 258.858 538.64C258.858 537.96 258.645 537.407 258.218 536.98C257.805 536.54 257.271 536.32 256.618 536.32C255.925 536.32 255.338 536.513 254.858 536.9C254.378 537.273 253.965 537.813 253.618 538.52L252.518 537.92C252.905 537.04 253.451 536.347 254.158 535.84C254.865 535.32 255.685 535.06 256.618 535.06C257.325 535.06 257.958 535.213 258.518 535.52C259.078 535.827 259.511 536.253 259.818 536.8C260.138 537.333 260.298 537.947 260.298 538.64C260.298 539.36 260.125 540 259.778 540.56C259.445 541.107 258.978 541.5 258.378 541.74ZM267.403 539.72C268.256 539.72 269.03 539.927 269.723 540.34C270.416 540.753 270.963 541.327 271.363 542.06C271.763 542.78 271.963 543.6 271.963 544.52C271.963 545.44 271.763 546.267 271.363 547C270.976 547.72 270.436 548.287 269.743 548.7C269.063 549.113 268.296 549.32 267.443 549.32C266.59 549.32 265.81 549.093 265.103 548.64C264.41 548.173 263.863 547.527 263.463 546.7C263.076 545.873 262.883 544.94 262.883 543.9C262.883 541.953 263.21 540.32 263.863 539C264.53 537.667 265.43 536.68 266.563 536.04C267.71 535.387 269.003 535.06 270.443 535.06V536.34C268.816 536.34 267.476 536.767 266.423 537.62C265.37 538.473 264.696 539.687 264.403 541.26C264.683 540.767 265.11 540.387 265.683 540.12C266.256 539.853 266.83 539.72 267.403 539.72ZM267.403 548.08C268.003 548.08 268.543 547.927 269.023 547.62C269.516 547.313 269.903 546.893 270.183 546.36C270.463 545.813 270.603 545.2 270.603 544.52C270.603 543.84 270.463 543.233 270.183 542.7C269.903 542.153 269.516 541.727 269.023 541.42C268.543 541.113 268.003 540.96 267.403 540.96C266.43 540.96 265.656 541.28 265.083 541.92C264.523 542.547 264.243 543.34 264.243 544.3C264.243 545.02 264.383 545.673 264.663 546.26C264.943 546.833 265.323 547.28 265.803 547.6C266.283 547.92 266.816 548.08 267.403 548.08Z" fill="#3B3B3B"/>
<path d="M7.6 428V414.36H9.1V420.26H16.3V414.36H17.8V428H16.3V421.5H9.1V428H7.6ZM24.6984 418.32C25.5384 418.32 26.2984 418.527 26.9784 418.94C27.6584 419.353 28.1918 419.92 28.5784 420.64C28.9651 421.347 29.1584 422.14 29.1584 423.02C29.1584 423.273 29.1518 423.467 29.1384 423.6H21.4384C21.4918 424.56 21.8051 425.38 22.3784 426.06C22.9518 426.74 23.7318 427.08 24.7184 427.08C25.5184 427.08 26.1784 426.933 26.6984 426.64C27.2318 426.333 27.6584 425.913 27.9784 425.38L29.0584 426.1C28.6184 426.793 28.0384 427.34 27.3184 427.74C26.5984 428.127 25.7451 428.32 24.7584 428.32C23.8518 428.32 23.0451 428.107 22.3384 427.68C21.6318 427.253 21.0784 426.66 20.6784 425.9C20.2784 425.14 20.0784 424.28 20.0784 423.32C20.0784 422.36 20.2718 421.5 20.6584 420.74C21.0584 419.98 21.6051 419.387 22.2984 418.96C23.0051 418.533 23.8051 418.32 24.6984 418.32ZM27.7984 422.48C27.6651 421.507 27.3384 420.78 26.8184 420.3C26.2984 419.807 25.5918 419.56 24.6984 419.56C23.8318 419.56 23.1184 419.84 22.5584 420.4C22.0118 420.947 21.6651 421.64 21.5184 422.48H27.7984ZM37.9008 428H36.3408L33.9008 424.1L31.4608 428H29.9408L32.9408 423.2L30.1208 418.64H31.6608L33.9208 422.32L36.3008 418.64H37.8008L34.8608 423.18L37.9008 428ZM48.5761 428V414.36H56.0161V415.62H50.0761V420.38H54.4761V421.6H50.0761V428H48.5761ZM57.6195 414.36H60.9995C62.3995 414.36 63.6062 414.633 64.6195 415.18C65.6329 415.713 66.4062 416.493 66.9395 417.52C67.4729 418.547 67.7395 419.773 67.7395 421.2C67.7395 423.333 67.1462 425 65.9595 426.2C64.7729 427.4 63.1195 428 60.9995 428H57.6195V414.36ZM60.9595 426.64C62.5862 426.64 63.8595 426.193 64.7795 425.3C65.6995 424.407 66.1595 423.04 66.1595 421.2C66.1595 419.347 65.6995 417.973 64.7795 417.08C63.8595 416.187 62.5862 415.74 60.9595 415.74H59.1195V426.64H60.9595ZM74.392 428.32C73.5254 428.32 72.7387 428.147 72.032 427.8C71.3254 427.453 70.7654 426.96 70.352 426.32C69.9387 425.68 69.732 424.947 69.732 424.12C69.732 423.2 69.9654 422.44 70.432 421.84C70.912 421.24 71.5987 420.807 72.492 420.54C71.0387 420.02 70.312 419.047 70.312 417.62C70.312 416.887 70.492 416.253 70.852 415.72C71.2254 415.187 71.7187 414.78 72.332 414.5C72.9587 414.207 73.6387 414.06 74.372 414.06C75.1187 414.06 75.7987 414.207 76.412 414.5C77.0387 414.78 77.532 415.193 77.892 415.74C78.252 416.273 78.432 416.9 78.432 417.62C78.432 419.047 77.712 420.02 76.272 420.54C77.1787 420.847 77.8587 421.293 78.312 421.88C78.7787 422.453 79.012 423.2 79.012 424.12C79.012 424.933 78.812 425.66 78.412 426.3C78.012 426.94 77.4587 427.44 76.752 427.8C76.0454 428.147 75.2587 428.32 74.392 428.32ZM74.392 419.88C75.2054 419.88 75.832 419.693 76.272 419.32C76.7254 418.947 76.952 418.387 76.952 417.64C76.952 416.88 76.7187 416.32 76.252 415.96C75.7987 415.587 75.172 415.4 74.372 415.4C73.572 415.4 72.9387 415.587 72.472 415.96C72.0054 416.333 71.772 416.887 71.772 417.62C71.772 418.38 72.012 418.947 72.492 419.32C72.972 419.693 73.6054 419.88 74.392 419.88ZM74.352 426.98C75.352 426.98 76.132 426.733 76.692 426.24C77.2654 425.733 77.552 425.02 77.552 424.1C77.552 423.167 77.272 422.453 76.712 421.96C76.152 421.467 75.372 421.22 74.372 421.22C73.3854 421.22 72.6054 421.467 72.032 421.96C71.4587 422.453 71.172 423.16 71.172 424.08C71.172 425.013 71.452 425.733 72.012 426.24C72.5854 426.733 73.3654 426.98 74.352 426.98ZM84.3156 414.36H85.6756V428H84.3156V416.6L81.0756 419.8L80.3156 419.04L84.3156 414.36ZM93.3569 428.32C92.4902 428.32 91.7035 428.147 90.9969 427.8C90.2902 427.453 89.7302 426.96 89.3169 426.32C88.9035 425.68 88.6969 424.947 88.6969 424.12C88.6969 423.2 88.9302 422.44 89.3969 421.84C89.8769 421.24 90.5635 420.807 91.4569 420.54C90.0035 420.02 89.2769 419.047 89.2769 417.62C89.2769 416.887 89.4569 416.253 89.8169 415.72C90.1902 415.187 90.6835 414.78 91.2969 414.5C91.9235 414.207 92.6035 414.06 93.3369 414.06C94.0835 414.06 94.7635 414.207 95.3769 414.5C96.0035 414.78 96.4969 415.193 96.8569 415.74C97.2169 416.273 97.3969 416.9 97.3969 417.62C97.3969 419.047 96.6769 420.02 95.2369 420.54C96.1435 420.847 96.8235 421.293 97.2769 421.88C97.7435 422.453 97.9769 423.2 97.9769 424.12C97.9769 424.933 97.7769 425.66 97.3769 426.3C96.9769 426.94 96.4235 427.44 95.7169 427.8C95.0102 428.147 94.2235 428.32 93.3569 428.32ZM93.3569 419.88C94.1702 419.88 94.7969 419.693 95.2369 419.32C95.6902 418.947 95.9169 418.387 95.9169 417.64C95.9169 416.88 95.6835 416.32 95.2169 415.96C94.7635 415.587 94.1369 415.4 93.3369 415.4C92.5369 415.4 91.9035 415.587 91.4369 415.96C90.9702 416.333 90.7369 416.887 90.7369 417.62C90.7369 418.38 90.9769 418.947 91.4569 419.32C91.9369 419.693 92.5702 419.88 93.3569 419.88ZM93.3169 426.98C94.3169 426.98 95.0969 426.733 95.6569 426.24C96.2302 425.733 96.5169 425.02 96.5169 424.1C96.5169 423.167 96.2369 422.453 95.6769 421.96C95.1169 421.467 94.3369 421.22 93.3369 421.22C92.3502 421.22 91.5702 421.467 90.9969 421.96C90.4235 422.453 90.1369 423.16 90.1369 424.08C90.1369 425.013 90.4169 425.733 90.9769 426.24C91.5502 426.733 92.3302 426.98 93.3169 426.98ZM100.471 414.36H103.851C105.251 414.36 106.458 414.633 107.471 415.18C108.484 415.713 109.258 416.493 109.791 417.52C110.324 418.547 110.591 419.773 110.591 421.2C110.591 423.333 109.998 425 108.811 426.2C107.624 427.4 105.971 428 103.851 428H100.471V414.36ZM103.811 426.64C105.438 426.64 106.711 426.193 107.631 425.3C108.551 424.407 109.011 423.04 109.011 421.2C109.011 419.347 108.551 417.973 107.631 417.08C106.711 416.187 105.438 415.74 103.811 415.74H101.971V426.64H103.811Z" fill="#3B3B3B"/>
<path d="M174.6 285V271.36H176.1V277.26H183.3V271.36H184.8V285H183.3V278.5H176.1V285H174.6ZM191.698 275.32C192.538 275.32 193.298 275.527 193.978 275.94C194.658 276.353 195.192 276.92 195.578 277.64C195.965 278.347 196.158 279.14 196.158 280.02C196.158 280.273 196.152 280.467 196.138 280.6H188.438C188.492 281.56 188.805 282.38 189.378 283.06C189.952 283.74 190.732 284.08 191.718 284.08C192.518 284.08 193.178 283.933 193.698 283.64C194.232 283.333 194.658 282.913 194.978 282.38L196.058 283.1C195.618 283.793 195.038 284.34 194.318 284.74C193.598 285.127 192.745 285.32 191.758 285.32C190.852 285.32 190.045 285.107 189.338 284.68C188.632 284.253 188.078 283.66 187.678 282.9C187.278 282.14 187.078 281.28 187.078 280.32C187.078 279.36 187.272 278.5 187.658 277.74C188.058 276.98 188.605 276.387 189.298 275.96C190.005 275.533 190.805 275.32 191.698 275.32ZM194.798 279.48C194.665 278.507 194.338 277.78 193.818 277.3C193.298 276.807 192.592 276.56 191.698 276.56C190.832 276.56 190.118 276.84 189.558 277.4C189.012 277.947 188.665 278.64 188.518 279.48H194.798ZM204.901 285H203.341L200.901 281.1L198.461 285H196.941L199.941 280.2L197.121 275.64H198.661L200.921 279.32L203.301 275.64H204.801L201.861 280.18L204.901 285ZM215.596 271.36H218.976C220.376 271.36 221.583 271.633 222.596 272.18C223.609 272.713 224.383 273.493 224.916 274.52C225.449 275.547 225.716 276.773 225.716 278.2C225.716 280.333 225.123 282 223.936 283.2C222.749 284.4 221.096 285 218.976 285H215.596V271.36ZM218.936 283.64C220.563 283.64 221.836 283.193 222.756 282.3C223.676 281.407 224.136 280.04 224.136 278.2C224.136 276.347 223.676 274.973 222.756 274.08C221.836 273.187 220.563 272.74 218.936 272.74H217.096V283.64H218.936ZM232.549 276.16C233.869 276.16 234.895 276.56 235.629 277.36C236.375 278.16 236.749 279.273 236.749 280.7C236.749 282.153 236.355 283.287 235.569 284.1C234.795 284.913 233.709 285.32 232.309 285.32C231.402 285.32 230.562 285.167 229.789 284.86C229.015 284.54 228.395 284.093 227.929 283.52L228.989 282.78C229.322 283.193 229.782 283.513 230.369 283.74C230.969 283.967 231.629 284.08 232.349 284.08C233.309 284.08 234.055 283.787 234.589 283.2C235.135 282.6 235.409 281.767 235.409 280.7C235.395 279.66 235.129 278.853 234.609 278.28C234.089 277.693 233.362 277.4 232.429 277.4C231.842 277.4 231.222 277.5 230.569 277.7C229.915 277.887 229.302 278.153 228.729 278.5V271.36H236.049V272.76H230.089V276.6C230.929 276.307 231.749 276.16 232.549 276.16ZM239.6 285V271.36H247.24V272.62H241.1V277.38H245.9V278.6H241.1V283.76H247.3V285H239.6ZM248.978 271.36H257.218L252.338 285H250.958L255.358 272.76H248.978V271.36ZM258.994 285V271.36H266.434V272.62H260.494V277.38H264.894V278.6H260.494V285H258.994ZM268.018 285V271.36H275.658V272.62H269.518V277.38H274.318V278.6H269.518V283.76H275.718V285H268.018Z" fill="#3B3B3B"/>
<circle cx="50" cy="221" r="35" fill="#2BAF9E"/>
<circle cx="225" cy="221" r="35" fill="#D5E7FE"/>
<circle cx="51" cy="485" r="35" fill="#8592EF"/>
<circle cx="50" cy="371" r="35" fill="#FD818D"/>
<circle cx="225" cy="371" r="35" fill="#F5F5F5"/>
<circle cx="225" cy="485" r="35" fill="#0F2536"/>
</svg>
