<svg width="41" height="42" viewBox="0 0 41 42" fill="none" xmlns="http://www.w3.org/2000/svg">
<path d="M37.8599 4.09348C37.8599 4.09348 34.2466 2.2523 31.536 2.06063C26.7868 1.7248 22.6208 1.95898 17.9999 4.09353C13.5458 6.15106 11.4684 7.70251 7.99989 11.5C4.88162 14.914 3.55047 17.2516 2.49989 21.6244C1.66217 25.1111 1.47032 27.5505 3.5 30.5C5.66631 33.648 14 34.5 14 34.5C14 34.5 18.1213 34.5665 21.6169 33.8027C26.2788 32.7839 32.6775 28.7559 32.6775 28.7559C32.6775 28.7559 37.3189 26.1956 38.9557 23.302C39.759 21.8817 40.236 20.9226 39.8807 19.328C39.5617 17.8966 39.1481 17.2889 37.8599 16.6011C35.528 15.3558 31.1537 17.4622 31.1537 17.4622L25.4463 21.6244C28.6782 19.2703 29.7309 18.3364 32.9628 15.9823C32.9628 15.9823 35.0879 13.7669 34.7209 12.5824C34.261 11.0986 29.1103 11.8202 29.1103 11.8202C29.1103 11.8202 26.0472 12.4494 23.0206 14.0177C19.737 15.7191 15.1729 19.328 15.1729 19.328L11.3435 22.4644M24.5901 17.4622L19.4534 40.9999" stroke="#555C6E" stroke-width="2"/>
</svg>
