<svg width="155" height="202" viewBox="0 0 155 202" fill="none" xmlns="http://www.w3.org/2000/svg">
<path d="M43.1909 82.6482C43.1909 77.1253 47.668 72.6482 53.1909 72.6482H62.7998C68.3226 72.6482 72.7998 77.1253 72.7998 82.6482V83.6321C72.7998 91.8084 66.1716 98.4366 57.9953 98.4366C49.8191 98.4366 43.1909 91.8084 43.1909 83.6321V82.6482Z" fill="#2BB09F"/>
<rect x="39.3703" y="72.6482" width="11.4615" height="6.68588" fill="#2BB09F"/>
<path d="M72.7998 76.9464C72.232 77.1061 71.3671 77.424 71.3671 77.424L72.3222 81.2445L73.2773 80.7669C73.6503 80.5804 73.8339 80.4119 74.2324 80.2893C74.9455 80.0699 75.376 79.7528 76.1427 79.8117C76.7307 79.857 77.0356 80.1421 77.5754 80.2893C77.9777 80.399 78.1472 80.6026 78.5305 80.7669C79.0726 80.9992 79.9632 81.2445 79.9632 81.2445V77.424L79.0081 76.9464C79.0081 76.9464 78.1537 76.5845 77.5754 76.4688C76.661 76.286 76.1156 76.3779 75.1876 76.4688C74.2411 76.5616 73.7152 76.6889 72.7998 76.9464Z" fill="#2BB09F"/>
<path d="M46.0562 83.5751C46.0562 79.1441 49.6483 75.5137 54.0793 75.5137H61.9113C66.3423 75.5137 69.9344 79.1441 69.9344 83.5751C69.9344 90.1689 64.5891 95.5713 57.9953 95.5713C51.4015 95.5713 46.0562 90.1689 46.0562 83.5751Z" fill="#EDF1F4"/>
<path d="M44.4834 81.6239L40.4158 79.1331L43.8913 76.8911L44.4834 81.6239Z" fill="#2BB09F"/>
<path d="M108.139 82.6482C108.139 77.1253 103.662 72.6482 98.1394 72.6482H88.5305C83.0077 72.6482 78.5305 77.1253 78.5305 82.6482V83.6321C78.5305 91.8084 85.1587 98.4366 93.335 98.4366C101.511 98.4366 108.139 91.8084 108.139 83.6321V82.6482Z" fill="#2BB09F"/>
<rect width="11.4615" height="6.68588" transform="matrix(-1 0 0 1 111.96 72.6482)" fill="#2BB09F"/>
<path d="M105.274 83.5751C105.274 79.1441 101.682 75.5137 97.2509 75.5137H89.4189C84.9879 75.5137 81.3958 79.1441 81.3958 83.5751C81.3958 90.1689 86.7411 95.5713 93.3349 95.5713C99.9287 95.5713 105.274 90.1689 105.274 83.5751Z" fill="#EDF1F4"/>
<path d="M106.847 81.6239L110.914 79.1331L107.439 76.8911L106.847 81.6239Z" fill="#2BB09F"/>
<path d="M35.1004 79.0535L38.0893 90.1554L37.2353 79.4805C37.2353 79.4805 37.0424 74.7361 37.6623 71.7945C38.3265 68.6432 40.6513 64.1086 40.6513 64.1086C40.6513 64.1086 40.0144 56.5194 40.6513 51.7257L44.0673 39.3428L62.4282 42.5359C62.4282 42.5359 69.1297 44.4247 73.5301 44.4665C77.9165 44.5082 84.632 42.7587 84.632 42.7587L95.734 36.3536L106.409 25.6786C106.409 25.6786 106.049 23.0357 105.555 21.4087C104.861 19.1243 104.206 17.9139 102.993 15.8577L102.94 15.7684C101.82 13.8694 101.154 12.7417 99.577 11.1607C97.7147 9.29426 96.3531 8.55721 94.026 7.31775C89.314 4.80803 80.7891 3.90178 80.7891 3.90178L66.6982 0.0590015C61.6037 -0.211655 57.8251 0.44021 53.0342 2.19379C48.9719 3.68073 41.9323 9.87981 41.9323 9.87981L50.0453 9.02594L41.9323 12.8689C41.9323 12.8689 37.952 15.0797 35.9544 17.1389C33.505 19.6637 31.2574 24.8248 31.2574 24.8248C31.2574 24.8248 36.1487 23.4395 39.3703 23.1169C42.3569 22.8178 44.1355 22.4251 47.0563 23.1169C49.959 23.8043 53.8882 26.5328 53.8882 26.5328L44.0673 24.8248C44.0673 24.8248 38.1682 24.7173 35.1004 26.5328C33.3723 27.5555 31.2574 29.9488 31.2574 29.9488C31.2574 29.9488 35.195 28.0207 37.6623 28.6678C40.2881 29.3565 42.7863 33.3648 42.7863 33.3648L35.9544 34.2188C33.7579 35.1983 32.5384 39.3428 32.5384 39.3428C32.5384 39.3428 31.5212 43.473 31.2574 46.1747C30.9657 49.1621 31.2574 53.8607 31.2574 53.8607C31.2574 53.8607 31.1109 58.0286 31.2574 60.6926C31.6597 68.0073 35.1004 79.0535 35.1004 79.0535Z" fill="#555C6E"/>
<path d="M114.949 79.2809L111.96 90.3829L112.814 79.7079C112.814 79.7079 113.007 74.9635 112.387 72.022C111.723 68.8707 109.398 64.336 109.398 64.336C109.398 64.336 110.035 56.7468 109.398 51.9531C109.398 51.9531 109.673 48.073 108.971 45.7475C108.15 43.0276 107.024 41.6865 105.128 39.5702C103.665 37.9373 100.858 35.9265 100.858 35.9265C100.858 35.9265 103.634 33.208 105.128 31.2296C106.438 29.4943 108.117 26.5326 108.117 26.5326C108.117 26.5326 112.253 28.9009 114.095 31.2296C116.278 33.9903 117.511 39.5702 117.511 39.5702C117.511 39.5702 118.528 43.7005 118.792 46.4021C119.084 49.3895 118.792 54.0881 118.792 54.0881C118.792 54.0881 118.938 58.256 118.792 60.9201C118.389 68.2347 114.949 79.2809 114.949 79.2809Z" fill="#555C6E"/>
<path d="M49.3561 149.919V125.367L71.3045 141.735H83.2088L104.413 123.506V152.151L82.0927 172.611L77.2566 191.956L73.9086 172.611L49.3561 149.919Z" fill="#F8F8F8"/>
<path fill-rule="evenodd" clip-rule="evenodd" d="M40.2243 95.7063L43.6403 105.954C43.6403 105.954 46.6898 113.589 49.6183 117.91C50.4951 119.204 51.3685 120.117 52.2211 121.009C52.8002 121.615 53.3698 122.21 53.9243 122.908C54.125 122.134 55.1337 118.341 56.2255 115.983C56.5132 115.362 57.0046 114.413 57.0046 114.413C57.0046 114.413 58.4034 112.461 58.9523 111.665C59.3628 111.069 59.7922 110.801 60.3117 110.477C60.4955 110.362 60.6905 110.24 60.9 110.095C61.6299 109.587 62.8477 108.917 62.8477 108.917L65.185 108.132L67.5222 107.739C67.5222 107.739 69.6698 107.566 71.0281 107.739C71.7976 107.838 72.9758 108.132 72.9758 108.132C72.9758 108.132 73.7354 108.269 74.1444 108.524C74.5556 108.781 75.2313 109.663 75.6689 110.272C76.1143 109.663 76.8021 108.781 77.2206 108.524C77.637 108.269 78.4101 108.132 78.4101 108.132C78.4101 108.132 79.6093 107.838 80.3926 107.739C81.7751 107.566 83.9611 107.739 83.9611 107.739L86.3401 108.132L88.7191 108.917L90.7015 110.095C90.7015 110.095 92.1184 110.859 92.684 111.665C93.2427 112.461 94.6665 113.943 94.6665 113.943C94.6665 113.943 95.3337 114.679 95.856 115.513C96.9808 117.31 97.442 120.693 97.442 120.693L97.329 123.58C98.0404 122.573 98.7801 121.8 99.5361 121.009C100.389 120.117 101.262 119.204 102.139 117.91C105.067 113.589 108.117 105.954 108.117 105.954L111.533 95.7063C111.533 95.7063 111.194 105.128 110.252 111.078C110.168 111.61 110.107 112.077 110.051 112.517C109.911 113.599 109.793 114.509 109.398 115.775C108.553 118.481 105.982 122.18 105.982 122.18L100.004 131.574L95.734 137.125C95.734 137.125 90.4663 143.083 85.9131 144.811C83.8331 145.6 82.5752 145.864 80.3621 146.092C78.836 146.249 76.5769 146.143 75.8786 146.105C75.1803 146.143 72.9213 146.249 71.3951 146.092C69.182 145.864 67.9241 145.6 65.8442 144.811C61.2909 143.083 56.0232 137.125 56.0232 137.125L51.7532 131.574L45.7753 122.18C45.7753 122.18 43.2042 118.481 42.3593 115.775C41.964 114.509 41.8465 113.599 41.7066 112.517C41.6499 112.077 41.5895 111.61 41.5053 111.078C40.5634 105.128 40.2243 95.7063 40.2243 95.7063ZM75.2381 121.86V121.871H74.1444C74.1444 121.871 72.7112 122.014 72.1967 122.656C71.8196 123.127 71.8187 123.577 71.8176 124.119V124.119V124.119C71.8172 124.277 71.8169 124.443 71.8072 124.619C71.7475 125.701 71.8072 127.367 71.8072 127.367V129.329L71.0281 130.115L69.4699 129.722L67.1327 128.937L64.4059 126.974C64.4059 126.974 62.4969 126.325 61.6791 125.404C60.9986 124.638 60.7318 124.053 60.5105 123.049C60.3125 122.151 60.5105 120.693 60.5105 120.693C60.5105 120.693 60.924 119.03 61.6791 118.338C62.7169 117.387 65.185 117.553 65.185 117.553L68.6908 118.338L74.9235 118.731H75.2381V118.764H76.5191L82.7716 118.654L86.3401 117.869C86.3401 117.869 88.8522 117.387 89.9086 118.338C90.6771 119.03 91.098 120.693 91.098 120.693C91.098 120.693 91.2996 122.151 91.098 123.049C90.8727 124.053 90.6012 124.638 89.9086 125.404C89.0761 126.325 87.1331 126.974 87.1331 126.974L84.3576 128.937L81.9786 129.722L80.3926 130.115L79.5996 129.329V127.367C79.5996 127.367 79.6604 125.701 79.5996 124.619C79.5897 124.442 79.5894 124.273 79.589 124.108V124.108C79.5879 123.546 79.5869 123.05 79.2031 122.579C78.6794 121.937 76.9461 121.86 76.9461 121.86H75.2381Z" fill="#555C6E"/>
<path d="M79.8607 193.444L73.9086 172.984L38.5679 156.615C38.5679 156.615 11.5158 158.808 4.34319 171.496C-1.51961 181.866 0.251112 202 0.251112 202H79.8607V193.444Z" fill="#2BB09F"/>
<path d="M38.9399 155.871L49.3561 142.851V149.919L74.2806 172.984L44.148 187.492L38.9399 155.871Z" fill="#0B9987"/>
<path d="M75.0246 193.444L82.0928 172.612L116.317 156.615C116.317 156.615 143.37 158.808 150.542 171.496C156.405 181.866 154.634 202 154.634 202H75.0246V193.444Z" fill="#2BB09F"/>
<path d="M115.945 155.87L104.413 142.839V151.035L82.0928 172.612L110.737 187.491L115.945 155.87Z" fill="#0B9987"/>
</svg>
