<svg width="338" height="185" viewBox="0 0 338 185" fill="none" xmlns="http://www.w3.org/2000/svg">
<path d="M4 166H334V177C334 181.418 330.418 185 326 185H12C7.58171 185 4 181.418 4 177V166Z" fill="#C4C4C4"/>
<rect x="4" width="330" height="166" rx="8" fill="#C8D8E8"/>
<g filter="url(#filter0_d)">
<path d="M26 151V165.5H22.9434H19.8868H17.3396H14.283H11.2264H8.16982H5.11322V151H8.16982H11.2264H14.283H17.3396H19.8868H22.9434H26Z" fill="#B17957"/>
<path d="M8.16982 151H5.11322V165.5H8.16982M8.16982 151V165.5M8.16982 151H11.2264M8.16982 165.5H11.2264M11.2264 165.5V151M11.2264 165.5H14.283M11.2264 151H14.283M14.283 151V165.5M14.283 151H17.3396M14.283 165.5H17.3396M17.3396 165.5V151M17.3396 165.5H19.8868M17.3396 151H19.8868M19.8868 151V165.5M19.8868 151H22.9434M19.8868 165.5H22.9434M22.9434 165.5H26V151H22.9434M22.9434 165.5V151" stroke="#553210"/>
</g>
<path d="M227.5 166V157.5L227 156H230.5V166H227.5Z" fill="#C0855F" stroke="#8D5A39"/>
<path d="M225 141.5L229 135L233 141.5H231L235 149H232L237 157.5H227H221L225.5 149H222.5L227 141.5H225Z" fill="#5C9B76" stroke="#03401C"/>
<g filter="url(#filter1_d)">
<rect width="27" height="2" transform="matrix(-1 0 0 1 331 151)" fill="#7C5629"/>
<rect width="27" height="2" transform="matrix(-1 0 0 1 331 160)" fill="#7C5629"/>
<path d="M327 148V166H324V148L325.5 147L327 148Z" fill="#7C5629" stroke="#553210"/>
<path d="M333 148V166H330V148L331.5 147L333 148Z" fill="#7C5629" stroke="#553210"/>
<path d="M321 148V166H318V148L319.5 147L321 148Z" fill="#7C5629" stroke="#553210"/>
<path d="M315 148V166H312V148L313.5 147L315 148Z" fill="#7C5629" stroke="#553210"/>
<path d="M310 148V166H307V148L308.5 147L310 148Z" fill="#7C5629" stroke="#553210"/>
</g>
<g filter="url(#filter2_d)">
<path d="M304 130H276L274 166H304V130Z" fill="#8592F0"/>
<path d="M304 130H276L274 166H304V130Z" stroke="black"/>
</g>
<path d="M288.5 148.5V161.5H296V148.5H288.5Z" fill="#FBE9C4" stroke="black"/>
<path d="M286.5 164V165.5V166H299V165V164H286.5Z" fill="#ACACAC" stroke="black"/>
<path d="M306.5 112H266.5L276 132.5H306.5V112Z" fill="#393742" stroke="black"/>
<g filter="url(#filter3_d)">
<path d="M243 166V125V124L260.5 108L278.5 124V166H243Z" fill="#8592F0"/>
<path d="M243 166V125V124L260.5 108L278.5 124V166H243Z" stroke="black"/>
</g>
<path d="M246 131H253.5V136.5V142H246V136.5V131Z" fill="#BED2E7"/>
<path d="M246 136.5V142H253.5V136.5M246 136.5V131H253.5V136.5M246 136.5H253.5" stroke="black"/>
<path d="M287.5 161.5V164H297.5V161.5H287.5Z" fill="#ACACAC" stroke="black"/>
<path d="M257 131H264.5V136.5V142H257V136.5V131Z" fill="#BED2E7"/>
<path d="M257 136.5V142H264.5V136.5M257 136.5V131H264.5V136.5M257 136.5H264.5" stroke="black"/>
<path d="M268 131H275.5V136.5V142H268V136.5V131Z" fill="#BED2E7"/>
<path d="M268 136.5V142H275.5V136.5M268 136.5V131H275.5V136.5M268 136.5H275.5" stroke="black"/>
<path d="M281 135H288.5V140.5V146H281V140.5V135Z" fill="#BED2E7"/>
<path d="M281 140.5V146H288.5V140.5M281 140.5V135H288.5V140.5M281 140.5H288.5" stroke="black"/>
<path d="M294 135H301.5V140.5V146H294V140.5V135Z" fill="#BED2E7"/>
<path d="M294 140.5V146H301.5V140.5M294 140.5V135H301.5V140.5M294 140.5H301.5" stroke="black"/>
<path d="M257 147H264.5V152.5V158H257V152.5V147Z" fill="#BED2E7"/>
<path d="M257 152.5V158H264.5V152.5M257 152.5V147H264.5V152.5M257 152.5H264.5" stroke="black"/>
<path d="M268 147H275.5V152.5V158H268V152.5V147Z" fill="#BED2E7"/>
<path d="M268 152.5V158H275.5V152.5M268 152.5V147H275.5V152.5M268 152.5H275.5" stroke="black"/>
<path d="M246 147H253.5V152.5V158H246V152.5V147Z" fill="#BED2E7"/>
<path d="M246 152.5V158H253.5V152.5M246 152.5V147H253.5V152.5M246 152.5H253.5" stroke="black"/>
<path d="M260.5 106L239.5 125L241.5 127L260.5 110L279 127L281.5 125L260.5 106Z" fill="#393742" stroke="black"/>
<g filter="url(#filter4_d)">
<rect x="26" y="144" width="41" height="22" fill="#2BB09F"/>
<rect x="26.5" y="144.5" width="40" height="21" stroke="black"/>
</g>
<path d="M23.5 146.5L26 138.5L26.0981 138H78L78.5 146.5H23.5Z" fill="#555C6E" stroke="black"/>
<g filter="url(#filter5_d)">
<path d="M66.5 165.5V146.5L85 136.5L103 146V165.5H66.5Z" fill="#2BB09F"/>
<path d="M66.5 165.5V146.5L85 136.5L103 146V165.5H66.5Z" stroke="black"/>
</g>
<path d="M71.5 152V165.5H97.5V152H71.5Z" fill="#FBE9C4" stroke="black"/>
<path d="M82.5 163H87" stroke="black"/>
<path d="M107 145.5L84.5 135L62.5 146L64 148L84.5 137.5L105 147L107 145.5Z" fill="#555C6E" stroke="black"/>
<path d="M26.5 138V120L52.5 107.5L78 120V138H26.5Z" fill="#2BB09F" stroke="black"/>
<path d="M46.5 123V125.5V128V133H40.25H34V128V125.5V123H40.25H46.5Z" fill="#E5E5E5"/>
<path d="M34 125.5V123M34 123H40.25M34 123V128M40.25 123H46.5V125.5V128M40.25 123V133M40.25 133H46.5V128M40.25 133H34V128M34 128H46.5" stroke="black"/>
<path d="M60.5 153V155.5V158V163H54.25H48V158V155.5V153H54.25H60.5Z" fill="#E5E5E5"/>
<path d="M48 155.5V153M48 153H54.25M48 153V158M54.25 153H60.5V155.5V158M54.25 153V163M54.25 163H60.5V158M54.25 163H48V158M48 158H60.5" stroke="black"/>
<path d="M68.5 123V125.5V128V133H62.25H56V128V125.5V123H62.25H68.5Z" fill="#E5E5E5"/>
<path d="M56 125.5V123M56 123H62.25M56 123V128M62.25 123H68.5V125.5V128M62.25 123V133M62.25 133H68.5V128M62.25 133H56V128M56 128H68.5" stroke="black"/>
<rect x="29.5" y="102.5" width="10" height="2" fill="#BD9576" stroke="black"/>
<path d="M34.5 152V165.5H41.5V152H34.5Z" fill="#FBE9C4" stroke="black"/>
<path d="M31 116V104.5H38.5V112.5L31 116Z" fill="#BD9576" stroke="black"/>
<path d="M52.5 104.5L20 120L22 122L52.5 108L83 122L84.5 120L52.5 104.5Z" fill="#555C6E" stroke="black"/>
<path d="M129.5 157.5C128.641 153.751 125.5 148.5 125.5 148.5L126.5 146.5C126.5 146.5 128.539 149.435 129.5 151.5C130.204 153.013 131 155.5 131 155.5C131 155.5 131.367 149.07 132 145C132.459 142.049 133.5 137.5 133.5 137.5L135.5 139C135.5 139 134.003 146.276 133.5 151C132.879 156.828 133 166 133 166H130C130 166 130.243 160.741 129.5 157.5Z" fill="#C0855F" stroke="#8D5A39"/>
<mask id="path-56-inside-1" fill="white">
<path fill-rule="evenodd" clip-rule="evenodd" d="M111.084 144.769C107.591 143.911 105 140.758 105 137C105 132.582 108.582 129 113 129C116.358 129 119.232 131.068 120.419 134C120.446 134 120.473 134 120.5 134C125.747 134 130 138.253 130 143.5C130 148.747 125.747 153 120.5 153C115.684 153 111.704 149.416 111.084 144.769Z"/>
</mask>
<path fill-rule="evenodd" clip-rule="evenodd" d="M111.084 144.769C107.591 143.911 105 140.758 105 137C105 132.582 108.582 129 113 129C116.358 129 119.232 131.068 120.419 134C120.446 134 120.473 134 120.5 134C125.747 134 130 138.253 130 143.5C130 148.747 125.747 153 120.5 153C115.684 153 111.704 149.416 111.084 144.769Z" fill="#5C9B76"/>
<path d="M111.084 144.769L112.075 144.637L111.985 143.961L111.323 143.798L111.084 144.769ZM120.419 134L119.492 134.376L119.747 135.006L120.427 135L120.419 134ZM111.323 143.798C108.266 143.047 106 140.287 106 137H104C104 141.229 106.916 144.774 110.845 145.74L111.323 143.798ZM106 137C106 133.134 109.134 130 113 130V128C108.029 128 104 132.029 104 137H106ZM113 130C115.936 130 118.453 131.808 119.492 134.376L121.346 133.625C120.011 130.328 116.779 128 113 128V130ZM120.427 135C120.451 135 120.476 135 120.5 135V133C120.47 133 120.44 133 120.41 133L120.427 135ZM120.5 135C125.194 135 129 138.806 129 143.5H131C131 137.701 126.299 133 120.5 133V135ZM129 143.5C129 148.194 125.194 152 120.5 152V154C126.299 154 131 149.299 131 143.5H129ZM120.5 152C116.191 152 112.63 148.793 112.075 144.637L110.093 144.901C110.779 150.038 115.176 154 120.5 154V152Z" fill="#03401C" mask="url(#path-56-inside-1)"/>
<mask id="path-58-inside-2" fill="white">
<path fill-rule="evenodd" clip-rule="evenodd" d="M127.721 133.95C125.052 133.606 123 131.521 123 129C123 128.507 123.078 128.031 123.225 127.581C120.1 125.762 118 122.376 118 118.5C118 112.701 122.701 108 128.5 108C131.328 108 133.894 109.118 135.782 110.936C137.183 109.729 139.006 109 141 109C145.418 109 149 112.582 149 117C149 118.309 148.686 119.544 148.129 120.635C151.099 122.834 153 126.212 153 130C153 136.627 147.18 142 140 142C134.32 142 129.49 138.637 127.721 133.95Z"/>
</mask>
<path fill-rule="evenodd" clip-rule="evenodd" d="M127.721 133.95C125.052 133.606 123 131.521 123 129C123 128.507 123.078 128.031 123.225 127.581C120.1 125.762 118 122.376 118 118.5C118 112.701 122.701 108 128.5 108C131.328 108 133.894 109.118 135.782 110.936C137.183 109.729 139.006 109 141 109C145.418 109 149 112.582 149 117C149 118.309 148.686 119.544 148.129 120.635C151.099 122.834 153 126.212 153 130C153 136.627 147.18 142 140 142C134.32 142 129.49 138.637 127.721 133.95Z" fill="#5C9B76"/>
<path d="M127.721 133.95L128.656 133.597L128.444 133.035L127.849 132.958L127.721 133.95ZM123.225 127.581L124.176 127.89L124.425 127.122L123.728 126.716L123.225 127.581ZM135.782 110.936L135.089 111.656L135.745 112.288L136.435 111.693L135.782 110.936ZM148.129 120.635L147.238 120.18L146.853 120.934L147.533 121.438L148.129 120.635ZM127.849 132.958C125.597 132.668 124 130.94 124 129H122C122 132.102 124.507 134.544 127.593 134.942L127.849 132.958ZM124 129C124 128.614 124.061 128.242 124.176 127.89L122.274 127.272C122.096 127.819 122 128.4 122 129H124ZM123.728 126.716C120.898 125.069 119 122.006 119 118.5H117C117 122.746 119.302 126.454 122.722 128.445L123.728 126.716ZM119 118.5C119 113.253 123.253 109 128.5 109V107C122.149 107 117 112.149 117 118.5H119ZM128.5 109C131.059 109 133.38 110.01 135.089 111.656L136.476 110.215C134.409 108.225 131.597 107 128.5 107V109ZM136.435 111.693C137.661 110.637 139.255 110 141 110V108C138.758 108 136.705 108.821 135.13 110.178L136.435 111.693ZM141 110C144.866 110 148 113.134 148 117H150C150 112.029 145.971 108 141 108V110ZM148 117C148 118.147 147.725 119.227 147.238 120.18L149.019 121.09C149.647 119.861 150 118.471 150 117H148ZM147.533 121.438C150.275 123.469 152 126.561 152 130H154C154 125.863 151.922 122.199 148.724 119.831L147.533 121.438ZM152 130C152 136.001 146.704 141 140 141V143C147.655 143 154 137.254 154 130H152ZM140 141C134.708 141 130.269 137.87 128.656 133.597L126.785 134.303C128.711 139.404 133.931 143 140 143V141Z" fill="#03401C" mask="url(#path-58-inside-2)"/>
<g filter="url(#filter6_d)">
<path d="M141.5 166V146L141 144H166L165.5 166H141.5Z" fill="#FE828D"/>
<path d="M141.5 166V146L141 144H166L165.5 166H141.5Z" stroke="black"/>
</g>
<g filter="url(#filter7_d)">
<path d="M187.5 166V146L187 144H212V166H187.5Z" fill="#FE828D"/>
<path d="M187.5 166V146L187 144H212V166H187.5Z" stroke="black"/>
</g>
<path d="M146 154.5V152H152H158V154.5V157V161.5H152H146V157V154.5Z" fill="#FBF7EF"/>
<path d="M146 157V161.5H152H158V157M146 157V154.5V152H152H158V154.5V157M146 157H158" stroke="black"/>
<path d="M195 152H207V156.5V161.5H195V156.5V152Z" fill="#FBF7EF"/>
<path d="M195 156.5V161.5H207V156.5M195 156.5V152H207V156.5M195 156.5H207" stroke="black"/>
<path d="M137.5 146L145.5 124.5H208L216 146H137.5Z" fill="#8F6247" stroke="black"/>
<path d="M148.5 142.5V134L153 129.5L158 133V142.5H148.5Z" fill="#FE828D" stroke="black"/>
<path d="M153 128L146 132.5L147.5 134.5L153 131L159 134.5L160.5 132.5L153 128Z" fill="#B17957" stroke="black"/>
<path d="M195.5 142.5V134L200 129.5L205 133V142.5H195.5Z" fill="#FE828D" stroke="black"/>
<path d="M200 128L193 132.5L194.5 134.5L200 131L206 134.5L207.5 132.5L200 128Z" fill="#B17957" stroke="black"/>
<g filter="url(#filter8_d)">
<path d="M163.5 166V146.5V146L177 136.5L190 146V166H163.5Z" fill="#FE828D"/>
<path d="M163.5 166V146.5V146L177 136.5L190 146V166H163.5Z" stroke="black"/>
</g>
<path d="M173 151.5V166H181V151.5H173Z" fill="#EFF1D7" stroke="black"/>
<path d="M159 148.5L157 145.5L176.5 134.5L196 146L194.5 149L176.5 138.5L163.5 146L159 148.5Z" fill="#B17957" stroke="black"/>
<path d="M4 166H334" stroke="black"/>
<path d="M9 178H16.5" stroke="black"/>
<path d="M26 178H33.5" stroke="black"/>
<path d="M43 178H50.5" stroke="black"/>
<path d="M59 178H66.5" stroke="black"/>
<path d="M76 178H83.5" stroke="black"/>
<path d="M92 178H99.5" stroke="black"/>
<path d="M109 178H116.5" stroke="black"/>
<path d="M126 178H133.5" stroke="black"/>
<path d="M142 178H149.5" stroke="black"/>
<path d="M159 178H166.5" stroke="black"/>
<path d="M175 178H182.5" stroke="black"/>
<path d="M191 178H198.5" stroke="black"/>
<path d="M208 178H215.5" stroke="black"/>
<path d="M223 178H230.5" stroke="black"/>
<path d="M240 178H247.5" stroke="black"/>
<path d="M257 178H264.5" stroke="black"/>
<path d="M273 178H280.5" stroke="black"/>
<path d="M290 178H297.5" stroke="black"/>
<path d="M306 178H313.5" stroke="black"/>
<path d="M323 178H330.5" stroke="black"/>
<path fill-rule="evenodd" clip-rule="evenodd" d="M185.005 60.9545C182.363 64.3876 178.47 66.5581 174.128 66.5581C170.506 66.5581 167.196 65.0477 164.664 62.5537C163.319 62.8892 161.889 63.0698 160.407 63.0698C152.45 63.0698 146 57.8638 146 51.4419C146 45.0199 152.45 39.814 160.407 39.814C161.278 39.814 162.131 39.8763 162.959 39.9958C165.601 36.3366 169.623 34 174.128 34C178.086 34 181.671 35.8032 184.274 38.7221C186.182 37.9318 188.327 37.4883 190.593 37.4883C198.55 37.4883 205 42.9546 205 49.6976C205 56.4406 198.55 61.9069 190.593 61.9069C188.611 61.9069 186.723 61.5678 185.005 60.9545Z" fill="#F1FAFF"/>
<path fill-rule="evenodd" clip-rule="evenodd" d="M40.7495 87.5584C38.7349 90.1769 35.7653 91.8325 32.4535 91.8325C29.6909 91.8325 27.1663 90.6805 25.2356 88.7784C24.2093 89.0343 23.1188 89.1721 21.9884 89.1721C15.9197 89.1721 11 85.2014 11 80.3033C11 75.4053 15.9197 71.4346 21.9884 71.4346C22.6525 71.4346 23.3028 71.4821 23.9345 71.5733C25.9494 68.7822 29.0173 67 32.4535 67C35.472 67 38.2063 68.3753 40.1922 70.6015C41.6474 69.9987 43.2829 69.6604 45.0116 69.6604C51.0803 69.6604 56 73.8296 56 78.9726C56 84.1156 51.0803 88.2848 45.0116 88.2848C43.5003 88.2848 42.0601 88.0262 40.7495 87.5584Z" fill="#F1FAFF"/>
<path fill-rule="evenodd" clip-rule="evenodd" d="M226.564 104.902C225.104 106.8 222.951 108 220.551 108C218.548 108 216.718 107.165 215.319 105.786C214.575 105.972 213.784 106.072 212.965 106.072C208.566 106.072 205 103.193 205 99.643C205 96.0926 208.566 93.2144 212.965 93.2144C213.446 93.2144 213.918 93.2489 214.376 93.3149C215.836 91.2919 218.06 90 220.551 90C222.739 90 224.721 90.9969 226.16 92.6106C227.215 92.1736 228.4 91.9284 229.654 91.9284C234.053 91.9284 237.619 94.9505 237.619 98.6784C237.619 102.406 234.053 105.428 229.654 105.428C228.558 105.428 227.514 105.241 226.564 104.902Z" fill="#F1FAFF"/>
<rect x="150.5" y="135.5" width="5" height="4" fill="#FBF7EF" stroke="black"/>
<rect x="197.5" y="135.5" width="5" height="4" fill="#FBF7EF" stroke="black"/>
<defs>
<filter id="filter0_d" x="0.61322" y="150.5" width="29.8868" height="23.5" filterUnits="userSpaceOnUse" color-interpolation-filters="sRGB">
<feFlood flood-opacity="0" result="BackgroundImageFix"/>
<feColorMatrix in="SourceAlpha" type="matrix" values="0 0 0 0 0 0 0 0 0 0 0 0 0 0 0 0 0 0 127 0"/>
<feOffset dy="4"/>
<feGaussianBlur stdDeviation="2"/>
<feColorMatrix type="matrix" values="0 0 0 0 0 0 0 0 0 0 0 0 0 0 0 0 0 0 0.25 0"/>
<feBlend mode="normal" in2="BackgroundImageFix" result="effect1_dropShadow"/>
<feBlend mode="normal" in="SourceGraphic" in2="effect1_dropShadow" result="shape"/>
</filter>
<filter id="filter1_d" x="300" y="146.399" width="37.5" height="28.1009" filterUnits="userSpaceOnUse" color-interpolation-filters="sRGB">
<feFlood flood-opacity="0" result="BackgroundImageFix"/>
<feColorMatrix in="SourceAlpha" type="matrix" values="0 0 0 0 0 0 0 0 0 0 0 0 0 0 0 0 0 0 127 0"/>
<feOffset dy="4"/>
<feGaussianBlur stdDeviation="2"/>
<feColorMatrix type="matrix" values="0 0 0 0 0 0 0 0 0 0 0 0 0 0 0 0 0 0 0.25 0"/>
<feBlend mode="normal" in2="BackgroundImageFix" result="effect1_dropShadow"/>
<feBlend mode="normal" in="SourceGraphic" in2="effect1_dropShadow" result="shape"/>
</filter>
<filter id="filter2_d" x="269.471" y="129.5" width="39.0285" height="45" filterUnits="userSpaceOnUse" color-interpolation-filters="sRGB">
<feFlood flood-opacity="0" result="BackgroundImageFix"/>
<feColorMatrix in="SourceAlpha" type="matrix" values="0 0 0 0 0 0 0 0 0 0 0 0 0 0 0 0 0 0 127 0"/>
<feOffset dy="4"/>
<feGaussianBlur stdDeviation="2"/>
<feColorMatrix type="matrix" values="0 0 0 0 0.65098 0 0 0 0 0.65098 0 0 0 0 0.65098 0 0 0 1 0"/>
<feBlend mode="normal" in2="BackgroundImageFix" result="effect1_dropShadow"/>
<feBlend mode="normal" in="SourceGraphic" in2="effect1_dropShadow" result="shape"/>
</filter>
<filter id="filter3_d" x="238.5" y="107.327" width="44.5" height="67.1732" filterUnits="userSpaceOnUse" color-interpolation-filters="sRGB">
<feFlood flood-opacity="0" result="BackgroundImageFix"/>
<feColorMatrix in="SourceAlpha" type="matrix" values="0 0 0 0 0 0 0 0 0 0 0 0 0 0 0 0 0 0 127 0"/>
<feOffset dy="4"/>
<feGaussianBlur stdDeviation="2"/>
<feColorMatrix type="matrix" values="0 0 0 0 0.65098 0 0 0 0 0.65098 0 0 0 0 0.65098 0 0 0 1 0"/>
<feBlend mode="normal" in2="BackgroundImageFix" result="effect1_dropShadow"/>
<feBlend mode="normal" in="SourceGraphic" in2="effect1_dropShadow" result="shape"/>
</filter>
<filter id="filter4_d" x="22" y="144" width="49" height="30" filterUnits="userSpaceOnUse" color-interpolation-filters="sRGB">
<feFlood flood-opacity="0" result="BackgroundImageFix"/>
<feColorMatrix in="SourceAlpha" type="matrix" values="0 0 0 0 0 0 0 0 0 0 0 0 0 0 0 0 0 0 127 0"/>
<feOffset dy="4"/>
<feGaussianBlur stdDeviation="2"/>
<feColorMatrix type="matrix" values="0 0 0 0 0.38143 0 0 0 0 0.38163 0 0 0 0 0.381829 0 0 0 0.4 0"/>
<feBlend mode="normal" in2="BackgroundImageFix" result="effect1_dropShadow"/>
<feBlend mode="normal" in="SourceGraphic" in2="effect1_dropShadow" result="shape"/>
</filter>
<filter id="filter5_d" x="62" y="135.933" width="45.5" height="38.0669" filterUnits="userSpaceOnUse" color-interpolation-filters="sRGB">
<feFlood flood-opacity="0" result="BackgroundImageFix"/>
<feColorMatrix in="SourceAlpha" type="matrix" values="0 0 0 0 0 0 0 0 0 0 0 0 0 0 0 0 0 0 127 0"/>
<feOffset dy="4"/>
<feGaussianBlur stdDeviation="2"/>
<feColorMatrix type="matrix" values="0 0 0 0 0.38143 0 0 0 0 0.38163 0 0 0 0 0.381829 0 0 0 0.4 0"/>
<feBlend mode="normal" in2="BackgroundImageFix" result="effect1_dropShadow"/>
<feBlend mode="normal" in="SourceGraphic" in2="effect1_dropShadow" result="shape"/>
</filter>
<filter id="filter6_d" x="136.36" y="143.5" width="34.1519" height="31" filterUnits="userSpaceOnUse" color-interpolation-filters="sRGB">
<feFlood flood-opacity="0" result="BackgroundImageFix"/>
<feColorMatrix in="SourceAlpha" type="matrix" values="0 0 0 0 0 0 0 0 0 0 0 0 0 0 0 0 0 0 127 0"/>
<feOffset dy="4"/>
<feGaussianBlur stdDeviation="2"/>
<feColorMatrix type="matrix" values="0 0 0 0 0.623529 0 0 0 0 0.623529 0 0 0 0 0.623529 0 0 0 1 0"/>
<feBlend mode="normal" in2="BackgroundImageFix" result="effect1_dropShadow"/>
<feBlend mode="normal" in="SourceGraphic" in2="effect1_dropShadow" result="shape"/>
</filter>
<filter id="filter7_d" x="182.36" y="143.5" width="34.1404" height="31" filterUnits="userSpaceOnUse" color-interpolation-filters="sRGB">
<feFlood flood-opacity="0" result="BackgroundImageFix"/>
<feColorMatrix in="SourceAlpha" type="matrix" values="0 0 0 0 0 0 0 0 0 0 0 0 0 0 0 0 0 0 127 0"/>
<feOffset dy="4"/>
<feGaussianBlur stdDeviation="2"/>
<feColorMatrix type="matrix" values="0 0 0 0 0.623529 0 0 0 0 0.623529 0 0 0 0 0.623529 0 0 0 1 0"/>
<feBlend mode="normal" in2="BackgroundImageFix" result="effect1_dropShadow"/>
<feBlend mode="normal" in="SourceGraphic" in2="effect1_dropShadow" result="shape"/>
</filter>
<filter id="filter8_d" x="159" y="135.885" width="35.5" height="38.6153" filterUnits="userSpaceOnUse" color-interpolation-filters="sRGB">
<feFlood flood-opacity="0" result="BackgroundImageFix"/>
<feColorMatrix in="SourceAlpha" type="matrix" values="0 0 0 0 0 0 0 0 0 0 0 0 0 0 0 0 0 0 127 0"/>
<feOffset dy="4"/>
<feGaussianBlur stdDeviation="2"/>
<feColorMatrix type="matrix" values="0 0 0 0 0.623529 0 0 0 0 0.623529 0 0 0 0 0.623529 0 0 0 1 0"/>
<feBlend mode="normal" in2="BackgroundImageFix" result="effect1_dropShadow"/>
<feBlend mode="normal" in="SourceGraphic" in2="effect1_dropShadow" result="shape"/>
</filter>
</defs>
</svg>
