<svg width="270" height="314" viewBox="0 0 270 314" fill="none" xmlns="http://www.w3.org/2000/svg">
<circle cx="128.5" cy="106.5" r="106.5" fill="#E5E5E5"/>
<path fill-rule="evenodd" clip-rule="evenodd" d="M26.4096 136.871C39.4839 180.893 80.2506 213 128.516 213C187.335 213 235.016 165.318 235.016 106.5C235.016 47.6817 187.335 0 128.516 0C128.35 0 128.183 0.00038147 128.016 0.00114441L128.016 106H127.123L26.4096 136.871Z" fill="#555C6E"/>
<path d="M109.8 152.8C111.293 152.8 112.627 153.16 113.8 153.88C114.973 154.573 115.893 155.6 116.56 156.96C117.227 158.293 117.56 159.893 117.56 161.76C117.56 163.6 117.16 165.28 116.36 166.8C115.56 168.293 114.413 169.48 112.92 170.36C111.453 171.24 109.733 171.68 107.76 171.68C104.293 171.68 101.72 170.52 100.04 168.2C98.36 165.88 97.52 162.693 97.52 158.64C97.52 155.6 97.9867 152.933 98.92 150.64C99.88 148.347 101.24 146.573 103 145.32C104.787 144.04 106.88 143.4 109.28 143.4C111.6 143.4 113.653 144 115.44 145.2L113.12 148.96C111.92 148.267 110.693 147.92 109.44 147.92C107.92 147.92 106.693 148.56 105.76 149.84C104.827 151.12 104.267 152.933 104.08 155.28C105.707 153.627 107.613 152.8 109.8 152.8ZM107.84 167.16C108.96 167.16 109.8 166.693 110.36 165.76C110.947 164.8 111.24 163.493 111.24 161.84C111.24 160.16 110.973 158.96 110.44 158.24C109.907 157.52 109.107 157.16 108.04 157.16C106.6 157.16 105.28 157.867 104.08 159.28C104.133 162.133 104.44 164.16 105 165.36C105.56 166.56 106.507 167.16 107.84 167.16ZM135.258 156.48C137.071 157.36 138.418 158.4 139.298 159.6C140.178 160.773 140.618 162.133 140.618 163.68C140.618 165.147 140.191 166.493 139.338 167.72C138.511 168.92 137.298 169.88 135.698 170.6C134.098 171.32 132.218 171.68 130.058 171.68C127.951 171.68 126.111 171.333 124.538 170.64C122.991 169.92 121.805 168.973 120.978 167.8C120.151 166.6 119.738 165.267 119.738 163.8C119.738 160.787 121.418 158.547 124.778 157.08C122.138 155.533 120.818 153.4 120.818 150.68C120.818 149.24 121.218 147.973 122.018 146.88C122.818 145.787 123.925 144.933 125.338 144.32C126.778 143.707 128.405 143.4 130.218 143.4C132.965 143.4 135.205 144.027 136.938 145.28C138.698 146.507 139.578 148.2 139.578 150.36C139.578 151.56 139.218 152.693 138.498 153.76C137.805 154.8 136.725 155.707 135.258 156.48ZM130.258 147.68C129.245 147.68 128.431 147.947 127.818 148.48C127.231 149.013 126.938 149.773 126.938 150.76C126.938 151.667 127.191 152.413 127.698 153C128.231 153.56 129.071 154.08 130.218 154.56L131.058 154.88C131.965 154.293 132.591 153.68 132.938 153.04C133.285 152.373 133.458 151.587 133.458 150.68C133.458 149.773 133.178 149.053 132.618 148.52C132.085 147.96 131.298 147.68 130.258 147.68ZM130.258 167.16C131.538 167.16 132.525 166.84 133.218 166.2C133.938 165.533 134.298 164.68 134.298 163.64C134.298 162.547 133.991 161.693 133.378 161.08C132.765 160.44 131.685 159.84 130.138 159.28L128.818 158.8C127.005 159.813 126.098 161.373 126.098 163.48C126.098 164.6 126.471 165.493 127.218 166.16C127.965 166.827 128.978 167.16 130.258 167.16ZM166.38 142.2L170.26 144.68L151.74 172.6L147.86 170.12L166.38 142.2ZM150.1 143.4C151.434 143.4 152.634 143.693 153.7 144.28C154.794 144.867 155.647 145.707 156.26 146.8C156.9 147.893 157.22 149.16 157.22 150.6C157.22 152.04 156.9 153.307 156.26 154.4C155.647 155.493 154.794 156.333 153.7 156.92C152.634 157.507 151.434 157.8 150.1 157.8C148.767 157.8 147.554 157.507 146.46 156.92C145.394 156.307 144.54 155.467 143.9 154.4C143.287 153.307 142.98 152.04 142.98 150.6C142.98 149.16 143.287 147.907 143.9 146.84C144.54 145.747 145.394 144.907 146.46 144.32C147.554 143.707 148.767 143.4 150.1 143.4ZM150.1 147.2C148.367 147.2 147.5 148.333 147.5 150.6C147.5 151.587 147.687 152.4 148.06 153.04C148.46 153.68 149.14 154 150.1 154C151.807 154 152.66 152.867 152.66 150.6C152.66 148.333 151.807 147.2 150.1 147.2ZM167.9 157.32C169.234 157.32 170.434 157.613 171.5 158.2C172.594 158.787 173.447 159.627 174.06 160.72C174.7 161.787 175.02 163.04 175.02 164.48C175.02 165.92 174.7 167.187 174.06 168.28C173.447 169.373 172.594 170.213 171.5 170.8C170.434 171.387 169.234 171.68 167.9 171.68C166.567 171.68 165.354 171.387 164.26 170.8C163.167 170.213 162.3 169.373 161.66 168.28C161.047 167.187 160.74 165.92 160.74 164.48C160.74 163.04 161.047 161.787 161.66 160.72C162.3 159.627 163.167 158.787 164.26 158.2C165.354 157.613 166.567 157.32 167.9 157.32ZM167.9 161.12C166.167 161.12 165.3 162.24 165.3 164.48C165.3 165.467 165.487 166.293 165.86 166.96C166.26 167.6 166.94 167.92 167.9 167.92C169.607 167.92 170.46 166.773 170.46 164.48C170.46 162.24 169.607 161.12 167.9 161.12Z" fill="white"/>
</svg>
