<svg width="313" height="286" viewBox="0 0 313 286" fill="none" xmlns="http://www.w3.org/2000/svg">
<circle cx="149.5" cy="106.5" r="106.5" fill="#555C6E"/>
<path fill-rule="evenodd" clip-rule="evenodd" d="M150 0.00114894C149.833 0.000383258 149.667 0 149.5 0C90.6817 0 43 47.6817 43 106.5C43 165.318 90.6817 213 149.5 213C208.318 213 256 165.318 256 106.5C256 106.333 256 106.167 255.999 106H150V0.00114894Z" fill="#E5E5E5"/>
<path d="M121.52 143.4C123.467 143.4 125.133 143.747 126.52 144.44C127.933 145.133 129 146.067 129.72 147.24C130.467 148.413 130.84 149.707 130.84 151.12C130.84 152.56 130.547 153.933 129.96 155.24C129.373 156.547 128.333 158.053 126.84 159.76C125.347 161.44 123.173 163.573 120.32 166.16H131.4L130.76 171H113.16V166.52C116.44 163.293 118.827 160.867 120.32 159.24C121.813 157.587 122.853 156.213 123.44 155.12C124.053 154.027 124.36 152.907 124.36 151.76C124.36 150.667 124.04 149.813 123.4 149.2C122.787 148.56 121.947 148.24 120.88 148.24C119.92 148.24 119.067 148.467 118.32 148.92C117.573 149.347 116.787 150.053 115.96 151.04L112.24 148.08C113.36 146.613 114.693 145.467 116.24 144.64C117.813 143.813 119.573 143.4 121.52 143.4ZM153.252 160.44V165.16H150.212V171H144.052L144.012 165.16H132.612V160.96L140.292 143.28L145.652 145.28L139.132 160.44H144.092L144.772 154.04H150.212V160.44H153.252ZM177.068 142.2L180.948 144.68L162.428 172.6L158.548 170.12L177.068 142.2ZM160.788 143.4C162.121 143.4 163.321 143.693 164.388 144.28C165.481 144.867 166.334 145.707 166.948 146.8C167.588 147.893 167.908 149.16 167.908 150.6C167.908 152.04 167.588 153.307 166.948 154.4C166.334 155.493 165.481 156.333 164.388 156.92C163.321 157.507 162.121 157.8 160.788 157.8C159.454 157.8 158.241 157.507 157.148 156.92C156.081 156.307 155.228 155.467 154.588 154.4C153.974 153.307 153.668 152.04 153.668 150.6C153.668 149.16 153.974 147.907 154.588 146.84C155.228 145.747 156.081 144.907 157.148 144.32C158.241 143.707 159.454 143.4 160.788 143.4ZM160.788 147.2C159.054 147.2 158.188 148.333 158.188 150.6C158.188 151.587 158.374 152.4 158.748 153.04C159.148 153.68 159.828 154 160.788 154C162.494 154 163.348 152.867 163.348 150.6C163.348 148.333 162.494 147.2 160.788 147.2ZM178.588 157.32C179.921 157.32 181.121 157.613 182.188 158.2C183.281 158.787 184.134 159.627 184.748 160.72C185.388 161.787 185.708 163.04 185.708 164.48C185.708 165.92 185.388 167.187 184.748 168.28C184.134 169.373 183.281 170.213 182.188 170.8C181.121 171.387 179.921 171.68 178.588 171.68C177.254 171.68 176.041 171.387 174.948 170.8C173.854 170.213 172.988 169.373 172.348 168.28C171.734 167.187 171.428 165.92 171.428 164.48C171.428 163.04 171.734 161.787 172.348 160.72C172.988 159.627 173.854 158.787 174.948 158.2C176.041 157.613 177.254 157.32 178.588 157.32ZM178.588 161.12C176.854 161.12 175.988 162.24 175.988 164.48C175.988 165.467 176.174 166.293 176.548 166.96C176.948 167.6 177.628 167.92 178.588 167.92C180.294 167.92 181.148 166.773 181.148 164.48C181.148 162.24 180.294 161.12 178.588 161.12Z" fill="#555C6E"/>
</svg>
