<svg width="120" height="153" viewBox="0 0 120 153" fill="none" xmlns="http://www.w3.org/2000/svg">
<path fill-rule="evenodd" clip-rule="evenodd" d="M43.5071 92.9863C43.5071 92.9863 39.9935 92.8426 38.1043 93.8394L38.0789 93.8528C36.6321 94.6161 35.5956 95.163 34.9763 96.683C34.4316 98.02 34.9763 100.38 34.9763 100.38L24.455 103.223C24.455 103.223 15.9311 104.851 11.6588 108.057C8.57575 110.372 7.12262 112.158 5.11848 115.451C3.05479 118.842 2.47417 121.175 1.54777 124.898C1.50652 125.063 1.46458 125.232 1.4218 125.403C0.284864 129.961 0 137.347 0 137.347V152.418L60 151.565L119.431 151.565L120 137.922C120 137.922 119.715 130.537 118.578 125.979C118.535 125.808 118.493 125.639 118.452 125.474C117.526 121.751 116.945 119.418 114.882 116.027C112.877 112.734 111.424 110.947 108.341 108.633C104.069 105.427 95.545 103.799 95.545 103.799L85.0237 100.956C85.0237 100.956 85.5684 98.5959 85.0237 97.2589C84.4044 95.7389 83.3679 95.1921 81.9211 94.4287L81.8957 94.4153C80.0065 93.4185 76.4929 93.5623 76.4929 93.5623L58.6186 110.896L43.5071 92.9863Z" fill="#2BB09F"/>
<path d="M43.2227 91.8489C43.6573 88.1831 42.0853 82.465 42.0853 82.465L75.3554 81.6119C75.3554 81.6119 74.25 88.007 75.3554 91.8489C76.001 94.0925 77.9147 97.2517 77.9147 97.2517C77.9147 97.2517 77.1609 99.5534 76.4929 100.948C74.9484 104.174 71.09 108.342 71.09 108.342C71.09 108.342 66.3959 111.881 62.8436 112.607C60.2324 113.141 58.6251 113.165 56.019 112.607C52.5697 111.869 50.8454 110.502 48.0569 108.342C44.505 105.59 40.6635 99.5266 40.6635 99.5266C40.6635 99.5266 42.8507 94.9875 43.2227 91.8489Z" fill="#F8F8F8"/>
<path d="M32.1327 27.5835L30.9953 66.8252L31.564 73.9342L54.8815 94.6925L56.019 95.2612H60.5687H64.5498L65.9716 94.9769L75.3555 87.8679L90.7109 72.228L95.545 64.5503V44.6451L84.7393 30.1427L32.1327 27.5835Z" fill="white"/>
<path d="M62.7389 94.0855C60.853 94.4297 57.8346 94.2956 57.8346 94.2956C57.8346 94.2956 58.8082 95.0673 59.5297 95.3771C61.1137 96.0575 62.2302 95.7876 63.94 95.5674C65.9347 95.3106 66.9616 94.688 68.8152 93.9077C70.5032 93.1971 71.4835 92.8238 73.0124 91.8154C74.5883 90.7759 76.6865 88.6737 76.6865 88.6737L79.5275 85.7161C79.5275 85.7161 81.2634 83.4681 82.2459 82.2032C83.113 81.087 85.6872 73.1939 86.3911 71.9682C91.1698 63.6475 89.1864 55.6246 89.1864 55.6246L86.9651 56.1155L82.0067 75.8493C82.0067 75.8493 81.208 79.4818 80.0569 81.5221C78.769 83.8047 77.5369 84.7663 75.6403 86.5751C73.5914 88.5291 69.929 91.0406 69.929 91.0406C69.929 91.0406 65.7387 93.5381 62.7389 94.0855Z" fill="#DEEDEA"/>
<path d="M53.4597 43.2231C53.4597 43.2231 67.8612 38.7136 75.6398 33.2705C83.8129 27.5515 91.8483 15.9247 91.8483 15.9247C91.8483 15.9247 90.623 10.8666 88.7204 8.247C86.2925 4.90434 82.3535 2.54934 80.1896 1.99091C77.609 1.32493 76.0019 1.60383 73.3649 1.99091C70.9653 2.34315 67.3934 3.69707 67.3934 3.69707C67.3934 3.69707 62.9395 0.895179 59.7157 0.284746C57.097 -0.211095 55.5451 0.0417774 52.891 0.284746C49.6161 0.58455 44.6446 1.99091 44.6446 1.99091C44.6446 1.99091 41.0679 3.33467 38.9574 4.55015C35.4704 6.55836 33.8599 8.2645 30.9953 11.0904C28.5857 13.4675 27.3091 14.9008 25.3081 17.6307C22.515 21.4412 21.0053 23.7321 19.3365 28.152C18.2804 30.9494 17.7312 32.5802 17.346 35.5454C16.974 38.4086 16.7773 43.2233 16.7773 43.2233C16.7773 43.2233 16.585 54.4169 17.346 61.7066C17.7195 65.2838 18.7678 70.8061 18.7678 70.8061L19.3365 67.3938C19.3365 67.3938 19.8912 71.2307 21.0427 73.3653C21.7598 74.6947 23.3176 76.4933 23.3176 76.4933L22.7488 75.0715L21.6114 69.6686L30.4266 82.1805L29.8578 78.1994L41.2323 90.9957C41.2323 90.9957 37.598 85.8742 36.1138 82.1805C34.0917 77.1483 33.9735 73.9383 33.5545 68.5312C33.2542 64.6561 32.9858 58.5788 32.9858 58.5788C32.9858 58.5788 32.5568 53.3941 33.5545 50.3321C34.1861 48.3938 34.9616 47.4642 36.1138 45.7824C38.7325 41.9598 44.6446 37.5359 44.6446 37.5359L34.4076 51.1852L62.2749 33.2705L53.4597 43.2231Z" fill="#555C6E"/>
<path d="M82.1801 28.1522L91.8483 15.9247C91.8483 15.9247 94.7993 19.8548 95.8294 21.8963C97.1957 24.6042 98.1142 26.0918 98.9573 29.0053C99.7389 31.706 100.712 33.3512 101.232 36.1143C101.969 40.0325 101.904 42.1072 102.37 46.0669C102.875 50.3682 102.37 57.1569 102.37 57.1569L100.948 71.375L100.421 65.7508C100.521 68.3262 100.335 71.7537 98.9573 73.9342C97.9919 75.4626 95.8294 77.3465 95.8294 77.3465L96.6825 72.5124C96.6825 72.5124 93.1405 77.7463 89.8578 79.9058C87.531 81.4364 83.3175 82.7494 83.3175 82.7494L86.4455 77.3465L76.2085 85.593L79.9052 78.7683C79.9052 78.7683 83.1191 72.8752 84.455 68.8157C85.5243 65.5662 86.0239 63.6798 86.4455 60.2849C86.9382 56.3176 86.9382 54.0152 86.4455 50.0479C86.0239 46.6531 85.8637 44.6346 84.455 41.5171C82.9185 38.1168 77.6303 32.1333 77.6303 32.1333L82.1801 28.1522Z" fill="#555C6E"/>
</svg>
